<svg aria-roledescription="architecture" role="graphics-document document" viewBox="-825.10205078125 -888.8444213867188 1778.2041015625 1908.6888427734375" style="max-width: 1778.2px; background-color: white;" xmlns:xlink="http://www.w3.org/1999/xlink" xmlns="http://www.w3.org/2000/svg" width="100%" id="my-svg"><style>#my-svg{font-family:"trebuchet ms",verdana,arial,sans-serif;font-size:16px;fill:#333;}@keyframes edge-animation-frame{from{stroke-dashoffset:0;}}@keyframes dash{to{stroke-dashoffset:0;}}#my-svg .edge-animation-slow{stroke-dasharray:9,5!important;stroke-dashoffset:900;animation:dash 50s linear infinite;stroke-linecap:round;}#my-svg .edge-animation-fast{stroke-dasharray:9,5!important;stroke-dashoffset:900;animation:dash 20s linear infinite;stroke-linecap:round;}#my-svg .error-icon{fill:#552222;}#my-svg .error-text{fill:#552222;stroke:#552222;}#my-svg .edge-thickness-normal{stroke-width:1px;}#my-svg .edge-thickness-thick{stroke-width:3.5px;}#my-svg .edge-pattern-solid{stroke-dasharray:0;}#my-svg .edge-thickness-invisible{stroke-width:0;fill:none;}#my-svg .edge-pattern-dashed{stroke-dasharray:3;}#my-svg .edge-pattern-dotted{stroke-dasharray:2;}#my-svg .marker{fill:#333333;stroke:#333333;}#my-svg .marker.cross{stroke:#333333;}#my-svg svg{font-family:"trebuchet ms",verdana,arial,sans-serif;font-size:16px;}#my-svg p{margin:0;}#my-svg .edge{stroke-width:3;stroke:#333333;fill:none;}#my-svg .arrow{fill:#333333;}#my-svg .node-bkg{fill:none;stroke:hsl(240, 60%, 86.2745098039%);stroke-width:2px;stroke-dasharray:8;}#my-svg .node-icon-text{display:flex;align-items:center;}#my-svg .node-icon-text&gt;div{color:#fff;margin:1px;height:fit-content;text-align:center;overflow:hidden;display:-webkit-box;-webkit-box-orient:vertical;}#my-svg :root{--mermaid-font-family:"trebuchet ms",verdana,arial,sans-serif;}</style><g/><g class="architecture-edges"><g><path class="edge" d="M 405.25999062065233,517.6425007622827 L 405.25999062065233,578.2377075822382 L405.25999062065233,638.8329144021936"/><polygon class="arrow" transform="translate(398.59332395398565,627.4995810688603)" points="0,0 13.333333333333334,0 6.666666666666667,13.333333333333334"/></g><g><path class="edge" d="M 365.25999062065233,678.8329144021936 L 304.6021101703434,678.8329144021936 L243.94422972003446,678.8329144021936"/><polygon class="arrow" transform="translate(241.94422972003446,672.166247735527)" points="0,6.666666666666667 13.333333333333334,0 13.333333333333334,13.333333333333334"/></g><g><path class="edge" d="M 203.94422972003446,718.8329144021936 L 203.94422972003446,779.5886548021117 L203.94422972003446,880.3443952020295"/></g><g><path class="edge" d="M 203.94422972003446,880.3443952020295 L 304.6021101703434,880.3443952020295 L365.25999062065233,880.3443952020295"/><polygon class="arrow" transform="translate(353.926657287319,873.6777285353629)" points="13.333333333333334,6.666666666666667 0,13.333333333333334 0,0"/></g><g><path class="edge" d="M 445.25999062065233,678.8329144021936 L 505.8775888172478,678.8329144021936 L606.4951870138432,678.8329144021936"/></g><g><path class="edge" d="M 445.25999062065233,880.3443952020295 L 505.8775888172478,880.3443952020295 L566.4951870138432,880.3443952020295"/><polygon class="arrow" transform="translate(555.1618536805098,873.6777285353629)" points="13.333333333333334,6.666666666666667 0,13.333333333333334 0,0"/></g><g><path class="edge" d="M 606.4951870138432,840.3443952020295 L 606.4951870138432,779.5886548021116 L606.4951870138432,678.8329144021936"/></g><g><path class="edge" d="M -103.60866932485789,-209.01309423841042 L -103.60866932485789,-147.22048711949327 L-103.60866932485789,-45.427880000576124"/></g><g><path class="edge" d="M -103.60866932485789,116.99113875529292 L -103.60866932485789,55.7816293773584 L-103.60866932485789,-45.427880000576124"/></g><g><path class="edge" d="M -103.60866932485789,-45.427880000576124 L -205.07229993288902,-45.427880000576124 L-306.53593054092016,-45.427880000576124"/></g><g><path class="edge" d="M -306.53593054092016,-209.01309423841042 L -306.53593054092016,-147.22048711949327 L-306.53593054092016,-45.427880000576124"/></g><g><path class="edge" d="M -306.53593054092016,116.99113875529292 L -306.53593054092016,55.7816293773584 L-306.53593054092016,-45.427880000576124"/></g><g><path class="edge" d="M 243.94422972003446,-249.01309423841042 L 304.6021101703434,-249.01309423841042 L405.25999062065233,-249.01309423841042"/></g><g><path class="edge" d="M 566.4951870138432,-249.01309423841042 L 505.8775888172478,-249.01309423841042 L405.25999062065233,-249.01309423841042"/></g><g><path class="edge" d="M 405.25999062065233,-249.01309423841042 L 405.25999062065233,-147.22048711949327 L405.25999062065233,-85.42788000057612"/></g><g><path class="edge" d="M 405.25999062065233,-5.427880000576124 L 405.25999062065233,216.10731038085328 L405.25999062065233,437.6425007622827"/></g><g><path class="edge" d="M 321.25999062065233,-45.427880000576124 L 150.82566064789722,-45.427880000576124 L-103.60866932485789,-45.427880000576124"/></g><g><path class="edge" d="M 405.25999062065233,-453.66213469291074 L 304.6021101703434,-453.66213469291074 L203.94422972003446,-453.66213469291074"/></g><g><path class="edge" d="M 405.25999062065233,-453.66213469291074 L 505.8775888172478,-453.66213469291074 L606.4951870138432,-453.66213469291074"/></g><g><path class="edge" d="M 203.94422972003446,-453.66213469291074 L 203.94422972003446,-351.3376144656605 L203.94422972003446,-289.0130942384104"/></g><g><path class="edge" d="M 606.4951870138432,-453.66213469291074 L 606.4951870138432,-351.3376144656605 L606.4951870138432,-289.0130942384104"/></g><g><path class="edge" d="M 445.25999062065233,-45.427880000576124 L 505.8775888172478,-45.427880000576124 L606.4951870138432,-45.427880000576124"/></g><g><path class="edge" d="M 606.4951870138432,-45.427880000576124 L 606.4951870138432,55.7816293773584 L606.4951870138432,116.99113875529292"/></g><g><path class="edge" d="M 606.4951870138432,196.99113875529292 L 606.4951870138432,417.9120265787433 L606.4951870138432,678.8329144021936"/></g><g><path class="edge" d="M 445.25999062065233,-766.3443952020295 L 505.8775888172478,-766.3443952020295 L566.4951870138432,-766.3443952020295"/></g><g><path class="edge" d="M 405.25999062065233,-664.3443952020295 L 405.25999062065233,-610.0032649474701 L405.25999062065233,-453.66213469291074"/></g><g><path class="edge" d="M 646.4951870138432,-766.3443952020295 L 706.5486147358193,-766.3443952020295 L766.6020424577955,-766.3443952020295"/></g><g><path class="edge" d="M -662.6020424577953,-717.8771640435934 L -602.1396463667583,-717.8771640435934 L-501.67725027572124,-717.8771640435934"/></g><g><path class="edge" d="M -340.7524580936467,-717.8771640435934 L -401.214854184684,-717.8771640435934 L-501.67725027572124,-717.8771640435934"/></g><g><path class="edge" d="M -501.67725027572124,-717.8771640435934 L -501.67725027572124,-617.2953201943801 L-501.67725027572124,-556.7134763451668"/></g></g><g class="architecture-services"><g transform="translate(365.25999062065233,437.6425007622826)" class="architecture-service"><g transform="translate(40, 80)" text-anchor="middle" dominant-baseline="middle" alignment-baseline="middle" dy="1em"><g><rect style="stroke: none" class="background"/><text style="" y="-10.1"><tspan dy="1.1em" y="-0.1em" x="0" class="text-outer-tspan"><tspan font-weight="normal" class="text-inner-tspan" font-style="normal">Client</tspan><tspan font-weight="normal" class="text-inner-tspan" font-style="normal"> activities</tspan></tspan><tspan dy="1.1em" y="1em" x="0" class="text-outer-tspan"><tspan font-weight="normal" class="text-inner-tspan" font-style="normal">queue</tspan></tspan></text></g></g><g><g><svg viewBox="0 0 80 80" height="80" width="80" xmlns="http://www.w3.org/2000/svg"><g><rect style="fill: #087ebf; stroke-width: 0px;" height="80" width="80"/><text style="fill: #fff; font-family: ArialMT, Arial; font-size: 67.75px;" transform="translate(21.16 64.67)"><tspan y="0" x="0">?</tspan></text></g></svg></g></g></g><g transform="translate(365.25999062065233,638.8329144021936)" class="architecture-service"><g transform="translate(40, 80)" text-anchor="middle" dominant-baseline="middle" alignment-baseline="middle" dy="1em"><g><rect style="stroke: none" class="background"/><text style="" y="-10.1"><tspan dy="1.1em" y="-0.1em" x="0" class="text-outer-tspan"><tspan font-weight="normal" class="text-inner-tspan" font-style="normal">Cache</tspan><tspan font-weight="normal" class="text-inner-tspan" font-style="normal"> aware</tspan></tspan><tspan dy="1.1em" y="1em" x="0" class="text-outer-tspan"><tspan font-weight="normal" class="text-inner-tspan" font-style="normal">router</tspan></tspan></text></g></g><g><g><svg viewBox="0 0 80 80" height="80" width="80" xmlns="http://www.w3.org/2000/svg"><g><rect style="fill: #087ebf; stroke-width: 0px;" height="80" width="80"/><text style="fill: #fff; font-family: ArialMT, Arial; font-size: 67.75px;" transform="translate(21.16 64.67)"><tspan y="0" x="0">?</tspan></text></g></svg></g></g></g><g transform="translate(163.94422972003446,638.8329144021936)" class="architecture-service"><g transform="translate(40, 80)" text-anchor="middle" dominant-baseline="middle" alignment-baseline="middle" dy="1em"><g><rect style="stroke: none" class="background"/><text style="" y="-10.1"><tspan dy="1.1em" y="-0.1em" x="0" class="text-outer-tspan"><tspan font-weight="normal" class="text-inner-tspan" font-style="normal">AI</tspan><tspan font-weight="normal" class="text-inner-tspan" font-style="normal"> Matcher</tspan></tspan></text></g></g><g><g><svg viewBox="0 0 80 80" height="80" width="80" xmlns="http://www.w3.org/2000/svg"><g><rect style="fill: #087ebf; stroke-width: 0px;" height="80" width="80"/><path style="fill: none; stroke: #fff; stroke-miterlimit: 10; stroke-width: 2px;" d="m65,47.5c0,2.76-2.24,5-5,5H20c-2.76,0-5-2.24-5-5,0-1.87,1.03-3.51,2.56-4.36-.04-.21-.06-.42-.06-.64,0-2.6,2.48-4.74,5.65-4.97,1.65-4.51,6.34-7.76,11.85-7.76.86,0,1.69.08,2.5.23,2.09-1.57,4.69-2.5,7.5-2.5,6.1,0,11.19,4.38,12.28,10.17,2.14.56,3.72,2.51,3.72,4.83,0,.03,0,.07-.01.1,2.29.46,4.01,2.48,4.01,4.9Z"/></g></svg></g></g></g><g transform="translate(365.25999062065233,840.3443952020295)" class="architecture-service"><g transform="translate(40, 80)" text-anchor="middle" dominant-baseline="middle" alignment-baseline="middle" dy="1em"><g><rect style="stroke: none" class="background"/><text style="" y="-10.1"><tspan dy="1.1em" y="-0.1em" x="0" class="text-outer-tspan"><tspan font-weight="normal" class="text-inner-tspan" font-style="normal">EF</tspan><tspan font-weight="normal" class="text-inner-tspan" font-style="normal"> results</tspan><tspan font-weight="normal" class="text-inner-tspan" font-style="normal"> queue</tspan></tspan></text></g></g><g><g><svg viewBox="0 0 80 80" height="80" width="80" xmlns="http://www.w3.org/2000/svg"><g><rect style="fill: #087ebf; stroke-width: 0px;" height="80" width="80"/><text style="fill: #fff; font-family: ArialMT, Arial; font-size: 67.75px;" transform="translate(21.16 64.67)"><tspan y="0" x="0">?</tspan></text></g></svg></g></g></g><g transform="translate(566.4951870138432,840.3443952020295)" class="architecture-service"><g transform="translate(40, 80)" text-anchor="middle" dominant-baseline="middle" alignment-baseline="middle" dy="1em"><g><rect style="stroke: none" class="background"/><text style="" y="-10.1"><tspan dy="1.1em" y="-0.1em" x="0" class="text-outer-tspan"><tspan font-weight="normal" class="text-inner-tspan" font-style="normal">EF</tspan><tspan font-weight="normal" class="text-inner-tspan" font-style="normal"> result</tspan></tspan><tspan dy="1.1em" y="1em" x="0" class="text-outer-tspan"><tspan font-weight="normal" class="text-inner-tspan" font-style="normal">processor</tspan></tspan></text></g></g><g><g><svg viewBox="0 0 80 80" height="80" width="80" xmlns="http://www.w3.org/2000/svg"><g><rect style="fill: #087ebf; stroke-width: 0px;" height="80" width="80"/><text style="fill: #fff; font-family: ArialMT, Arial; font-size: 67.75px;" transform="translate(21.16 64.67)"><tspan y="0" x="0">?</tspan></text></g></svg></g></g></g><g transform="translate(-143.60866932485789,116.99113875529292)" class="architecture-service"><g transform="translate(40, 80)" text-anchor="middle" dominant-baseline="middle" alignment-baseline="middle" dy="1em"><g><rect style="stroke: none" class="background"/><text style="" y="-10.1"><tspan dy="1.1em" y="-0.1em" x="0" class="text-outer-tspan"><tspan font-weight="normal" class="text-inner-tspan" font-style="normal">Auth</tspan><tspan font-weight="normal" class="text-inner-tspan" font-style="normal"> by</tspan><tspan font-weight="normal" class="text-inner-tspan" font-style="normal"> Cognito</tspan></tspan></text></g></g><g><g><svg viewBox="0 0 80 80" height="80" width="80" xmlns="http://www.w3.org/2000/svg"><g><rect style="fill: #087ebf; stroke-width: 0px;" height="80" width="80"/><text style="fill: #fff; font-family: ArialMT, Arial; font-size: 67.75px;" transform="translate(21.16 64.67)"><tspan y="0" x="0">?</tspan></text></g></svg></g></g></g><g transform="translate(-143.60866932485789,-289.0130942384104)" class="architecture-service"><g transform="translate(40, 80)" text-anchor="middle" dominant-baseline="middle" alignment-baseline="middle" dy="1em"><g><rect style="stroke: none" class="background"/><text style="" y="-10.1"><tspan dy="1.1em" y="-0.1em" x="0" class="text-outer-tspan"><tspan font-weight="normal" class="text-inner-tspan" font-style="normal">Identity</tspan></tspan><tspan dy="1.1em" y="1em" x="0" class="text-outer-tspan"><tspan font-weight="normal" class="text-inner-tspan" font-style="normal">Management</tspan><tspan font-weight="normal" class="text-inner-tspan" font-style="normal"> by</tspan></tspan><tspan dy="1.1em" y="2.1em" x="0" class="text-outer-tspan"><tspan font-weight="normal" class="text-inner-tspan" font-style="normal">IAM</tspan></tspan></text></g></g><g><g><svg viewBox="0 0 80 80" height="80" width="80" xmlns="http://www.w3.org/2000/svg"><g><rect style="fill: #087ebf; stroke-width: 0px;" height="80" width="80"/><text style="fill: #fff; font-family: ArialMT, Arial; font-size: 67.75px;" transform="translate(21.16 64.67)"><tspan y="0" x="0">?</tspan></text></g></svg></g></g></g><g transform="translate(-346.53593054092016,-289.0130942384104)" class="architecture-service"><g transform="translate(40, 80)" text-anchor="middle" dominant-baseline="middle" alignment-baseline="middle" dy="1em"><g><rect style="stroke: none" class="background"/><text style="" y="-10.1"><tspan dy="1.1em" y="-0.1em" x="0" class="text-outer-tspan"><tspan font-weight="normal" class="text-inner-tspan" font-style="normal">Key</tspan></tspan><tspan dy="1.1em" y="1em" x="0" class="text-outer-tspan"><tspan font-weight="normal" class="text-inner-tspan" font-style="normal">Management</tspan><tspan font-weight="normal" class="text-inner-tspan" font-style="normal"> by</tspan></tspan><tspan dy="1.1em" y="2.1em" x="0" class="text-outer-tspan"><tspan font-weight="normal" class="text-inner-tspan" font-style="normal">KMS</tspan></tspan></text></g></g><g><g><svg viewBox="0 0 80 80" height="80" width="80" xmlns="http://www.w3.org/2000/svg"><g><rect style="fill: #087ebf; stroke-width: 0px;" height="80" width="80"/><text style="fill: #fff; font-family: ArialMT, Arial; font-size: 67.75px;" transform="translate(21.16 64.67)"><tspan y="0" x="0">?</tspan></text></g></svg></g></g></g><g transform="translate(-346.53593054092016,116.99113875529292)" class="architecture-service"><g transform="translate(40, 80)" text-anchor="middle" dominant-baseline="middle" alignment-baseline="middle" dy="1em"><g><rect style="stroke: none" class="background"/><text style="" y="-10.1"><tspan dy="1.1em" y="-0.1em" x="0" class="text-outer-tspan"><tspan font-weight="normal" class="text-inner-tspan" font-style="normal">Logs</tspan><tspan font-weight="normal" class="text-inner-tspan" font-style="normal"> Monitoring</tspan></tspan><tspan dy="1.1em" y="1em" x="0" class="text-outer-tspan"><tspan font-weight="normal" class="text-inner-tspan" font-style="normal">and</tspan><tspan font-weight="normal" class="text-inner-tspan" font-style="normal"> Alarms</tspan><tspan font-weight="normal" class="text-inner-tspan" font-style="normal"> by</tspan></tspan><tspan dy="1.1em" y="2.1em" x="0" class="text-outer-tspan"><tspan font-weight="normal" class="text-inner-tspan" font-style="normal">Cloudwatch</tspan></tspan></text></g></g><g><g><svg viewBox="0 0 80 80" height="80" width="80" xmlns="http://www.w3.org/2000/svg"><g><rect style="fill: #087ebf; stroke-width: 0px;" height="80" width="80"/><text style="fill: #fff; font-family: ArialMT, Arial; font-size: 67.75px;" transform="translate(21.16 64.67)"><tspan y="0" x="0">?</tspan></text></g></svg></g></g></g><g transform="translate(163.94422972003446,-289.0130942384104)" class="architecture-service"><g transform="translate(40, 80)" text-anchor="middle" dominant-baseline="middle" alignment-baseline="middle" dy="1em"><g><rect style="stroke: none" class="background"/><text style="" y="-10.1"><tspan dy="1.1em" y="-0.1em" x="0" class="text-outer-tspan"><tspan font-weight="normal" class="text-inner-tspan" font-style="normal">API</tspan><tspan font-weight="normal" class="text-inner-tspan" font-style="normal"> by</tspan><tspan font-weight="normal" class="text-inner-tspan" font-style="normal"> API</tspan></tspan><tspan dy="1.1em" y="1em" x="0" class="text-outer-tspan"><tspan font-weight="normal" class="text-inner-tspan" font-style="normal">Gateway</tspan></tspan></text></g></g><g><g><svg viewBox="0 0 80 80" height="80" width="80" xmlns="http://www.w3.org/2000/svg"><g><rect style="fill: #087ebf; stroke-width: 0px;" height="80" width="80"/><text style="fill: #fff; font-family: ArialMT, Arial; font-size: 67.75px;" transform="translate(21.16 64.67)"><tspan y="0" x="0">?</tspan></text></g></svg></g></g></g><g transform="translate(365.25999062065233,-85.42788000057612)" class="architecture-service"><g transform="translate(40, 80)" text-anchor="middle" dominant-baseline="middle" alignment-baseline="middle" dy="1em"><g><rect style="stroke: none" class="background"/><text style="" y="-10.1"><tspan dy="1.1em" y="-0.1em" x="0" class="text-outer-tspan"><tspan font-weight="normal" class="text-inner-tspan" font-style="normal">Lambdas</tspan></tspan></text></g></g><g><g><svg viewBox="0 0 80 80" height="80" width="80" xmlns="http://www.w3.org/2000/svg"><g><rect style="fill: #087ebf; stroke-width: 0px;" height="80" width="80"/><text style="fill: #fff; font-family: ArialMT, Arial; font-size: 67.75px;" transform="translate(21.16 64.67)"><tspan y="0" x="0">?</tspan></text></g></svg></g></g></g><g transform="translate(566.4951870138432,-289.0130942384104)" class="architecture-service"><g transform="translate(40, 80)" text-anchor="middle" dominant-baseline="middle" alignment-baseline="middle" dy="1em"><g><rect style="stroke: none" class="background"/><text style="" y="-10.1"><tspan dy="1.1em" y="-0.1em" x="0" class="text-outer-tspan"><tspan font-weight="normal" class="text-inner-tspan" font-style="normal">Submitted</tspan></tspan><tspan dy="1.1em" y="1em" x="0" class="text-outer-tspan"><tspan font-weight="normal" class="text-inner-tspan" font-style="normal">activities</tspan><tspan font-weight="normal" class="text-inner-tspan" font-style="normal"> store</tspan></tspan><tspan dy="1.1em" y="2.1em" x="0" class="text-outer-tspan"><tspan font-weight="normal" class="text-inner-tspan" font-style="normal">by</tspan><tspan font-weight="normal" class="text-inner-tspan" font-style="normal"> S3</tspan><tspan font-weight="normal" class="text-inner-tspan" font-style="normal"> presigned</tspan></tspan><tspan dy="1.1em" y="3.2em" x="0" class="text-outer-tspan"><tspan font-weight="normal" class="text-inner-tspan" font-style="normal">URLs</tspan></tspan></text></g></g><g><g><svg viewBox="0 0 80 80" height="80" width="80" xmlns="http://www.w3.org/2000/svg"><g><rect style="fill: #087ebf; stroke-width: 0px;" height="80" width="80"/><text style="fill: #fff; font-family: ArialMT, Arial; font-size: 67.75px;" transform="translate(21.16 64.67)"><tspan y="0" x="0">?</tspan></text></g></svg></g></g></g><g transform="translate(566.4951870138432,116.99113875529292)" class="architecture-service"><g transform="translate(40, 80)" text-anchor="middle" dominant-baseline="middle" alignment-baseline="middle" dy="1em"><g><rect style="stroke: none" class="background"/><text style="" y="-10.1"><tspan dy="1.1em" y="-0.1em" x="0" class="text-outer-tspan"><tspan font-weight="normal" class="text-inner-tspan" font-style="normal">Emissions</tspan><tspan font-weight="normal" class="text-inner-tspan" font-style="normal"> store</tspan></tspan><tspan dy="1.1em" y="1em" x="0" class="text-outer-tspan"><tspan font-weight="normal" class="text-inner-tspan" font-style="normal">by</tspan><tspan font-weight="normal" class="text-inner-tspan" font-style="normal"> Aurora</tspan></tspan></text></g></g><g><g><svg viewBox="0 0 80 80" height="80" width="80" xmlns="http://www.w3.org/2000/svg"><g><rect style="fill: #087ebf; stroke-width: 0px;" height="80" width="80"/><text style="fill: #fff; font-family: ArialMT, Arial; font-size: 67.75px;" transform="translate(21.16 64.67)"><tspan y="0" x="0">?</tspan></text></g></svg></g></g></g><g transform="translate(365.25999062065233,-806.3443952020295)" class="architecture-service"><g transform="translate(40, 80)" text-anchor="middle" dominant-baseline="middle" alignment-baseline="middle" dy="1em"><g><rect style="stroke: none" class="background"/><text style="" y="-10.1"><tspan dy="1.1em" y="-0.1em" x="0" class="text-outer-tspan"><tspan font-weight="normal" class="text-inner-tspan" font-style="normal">React</tspan><tspan font-weight="normal" class="text-inner-tspan" font-style="normal"> Frontend</tspan></tspan></text></g></g><g><g><svg viewBox="0 0 80 80" height="80" width="80" xmlns="http://www.w3.org/2000/svg"><g><rect style="fill: #087ebf; stroke-width: 0px;" height="80" width="80"/><text style="fill: #fff; font-family: ArialMT, Arial; font-size: 67.75px;" transform="translate(21.16 64.67)"><tspan y="0" x="0">?</tspan></text></g></svg></g></g></g><g transform="translate(566.4951870138432,-806.3443952020295)" class="architecture-service"><g transform="translate(40, 80)" text-anchor="middle" dominant-baseline="middle" alignment-baseline="middle" dy="1em"><g><rect style="stroke: none" class="background"/><text style="" y="-10.1"><tspan dy="1.1em" y="-0.1em" x="0" class="text-outer-tspan"><tspan font-weight="normal" class="text-inner-tspan" font-style="normal">CDN</tspan></tspan></text></g></g><g><g><svg viewBox="0 0 80 80" height="80" width="80" xmlns="http://www.w3.org/2000/svg"><g><rect style="fill: #087ebf; stroke-width: 0px;" height="80" width="80"/><text style="fill: #fff; font-family: ArialMT, Arial; font-size: 67.75px;" transform="translate(21.16 64.67)"><tspan y="0" x="0">?</tspan></text></g></svg></g></g></g><g transform="translate(766.6020424577955,-806.3443952020295)" class="architecture-service"><g transform="translate(40, 80)" text-anchor="middle" dominant-baseline="middle" alignment-baseline="middle" dy="1em"><g><rect style="stroke: none" class="background"/><text style="" y="-10.1"><tspan dy="1.1em" y="-0.1em" x="0" class="text-outer-tspan"><tspan font-weight="normal" class="text-inner-tspan" font-style="normal">Frontend</tspan></tspan><tspan dy="1.1em" y="1em" x="0" class="text-outer-tspan"><tspan font-weight="normal" class="text-inner-tspan" font-style="normal">sources</tspan></tspan></text></g></g><g><g><svg viewBox="0 0 80 80" height="80" width="80" xmlns="http://www.w3.org/2000/svg"><g><rect style="fill: #087ebf; stroke-width: 0px;" height="80" width="80"/><text style="fill: #fff; font-family: ArialMT, Arial; font-size: 67.75px;" transform="translate(21.16 64.67)"><tspan y="0" x="0">?</tspan></text></g></svg></g></g></g><g transform="translate(-742.6020424577953,-757.8771640435934)" class="architecture-service"><g transform="translate(40, 80)" text-anchor="middle" dominant-baseline="middle" alignment-baseline="middle" dy="1em"><g><rect style="stroke: none" class="background"/><text style="" y="-10.1"><tspan dy="1.1em" y="-0.1em" x="0" class="text-outer-tspan"><tspan font-weight="normal" class="text-inner-tspan" font-style="normal">Github</tspan></tspan></text></g></g><g><g><svg viewBox="0 0 80 80" height="80" width="80" xmlns="http://www.w3.org/2000/svg"><g><rect style="fill: #087ebf; stroke-width: 0px;" height="80" width="80"/><text style="fill: #fff; font-family: ArialMT, Arial; font-size: 67.75px;" transform="translate(21.16 64.67)"><tspan y="0" x="0">?</tspan></text></g></svg></g></g></g><g transform="translate(-541.6772502757212,-556.7134763451668)" class="architecture-service"><g transform="translate(40, 80)" text-anchor="middle" dominant-baseline="middle" alignment-baseline="middle" dy="1em"><g><rect style="stroke: none" class="background"/><text style="" y="-10.1"><tspan dy="1.1em" y="-0.1em" x="0" class="text-outer-tspan"><tspan font-weight="normal" class="text-inner-tspan" font-style="normal">CICD</tspan><tspan font-weight="normal" class="text-inner-tspan" font-style="normal"> pipeline</tspan><tspan font-weight="normal" class="text-inner-tspan" font-style="normal"> by</tspan></tspan><tspan dy="1.1em" y="1em" x="0" class="text-outer-tspan"><tspan font-weight="normal" class="text-inner-tspan" font-style="normal">Github</tspan><tspan font-weight="normal" class="text-inner-tspan" font-style="normal"> Actions</tspan></tspan></text></g></g><g><g><svg viewBox="0 0 80 80" height="80" width="80" xmlns="http://www.w3.org/2000/svg"><g><rect style="fill: #087ebf; stroke-width: 0px;" height="80" width="80"/><text style="fill: #fff; font-family: ArialMT, Arial; font-size: 67.75px;" transform="translate(21.16 64.67)"><tspan y="0" x="0">?</tspan></text></g></svg></g></g></g><g transform="translate(-340.7524580936467,-757.8771640435934)" class="architecture-service"><g transform="translate(40, 80)" text-anchor="middle" dominant-baseline="middle" alignment-baseline="middle" dy="1em"><g><rect style="stroke: none" class="background"/><text style="" y="-10.1"><tspan dy="1.1em" y="-0.1em" x="0" class="text-outer-tspan"><tspan font-weight="normal" class="text-inner-tspan" font-style="normal">Infra</tspan><tspan font-weight="normal" class="text-inner-tspan" font-style="normal"> as</tspan><tspan font-weight="normal" class="text-inner-tspan" font-style="normal"> Code</tspan><tspan font-weight="normal" class="text-inner-tspan" font-style="normal"> by</tspan></tspan><tspan dy="1.1em" y="1em" x="0" class="text-outer-tspan"><tspan font-weight="normal" class="text-inner-tspan" font-style="normal">Terraform</tspan></tspan></text></g></g><g><g><svg viewBox="0 0 80 80" height="80" width="80" xmlns="http://www.w3.org/2000/svg"><g><rect style="fill: #087ebf; stroke-width: 0px;" height="80" width="80"/><text style="fill: #fff; font-family: ArialMT, Arial; font-size: 67.75px;" transform="translate(21.16 64.67)"><tspan y="0" x="0">?</tspan></text></g></svg></g></g></g><g transform="translate(163.94422972003446,840.3443952020295)" class="architecture-junction"><g><rect height="80" width="80" fill-opacity="0" id="node-ai-matcher-to-queue"/></g></g><g transform="translate(566.4951870138432,638.8329144021936)" class="architecture-junction"><g><rect height="80" width="80" fill-opacity="0" id="node-router-store-processor"/></g></g><g transform="translate(-143.60866932485789,-85.42788000057612)" class="architecture-junction"><g><rect height="80" width="80" fill-opacity="0" id="node-support1"/></g></g><g transform="translate(-346.53593054092016,-85.42788000057612)" class="architecture-junction"><g><rect height="80" width="80" fill-opacity="0" id="node-support2"/></g></g><g transform="translate(365.25999062065233,-493.66213469291074)" class="architecture-junction"><g><rect height="80" width="80" fill-opacity="0" id="node-frontend-backend"/></g></g><g transform="translate(163.94422972003446,-493.66213469291074)" class="architecture-junction"><g><rect height="80" width="80" fill-opacity="0" id="node-frontend-backend-left"/></g></g><g transform="translate(566.4951870138432,-493.66213469291074)" class="architecture-junction"><g><rect height="80" width="80" fill-opacity="0" id="node-frontend-backend-right"/></g></g><g transform="translate(365.25999062065233,-289.0130942384104)" class="architecture-junction"><g><rect height="80" width="80" fill-opacity="0" id="node-public-lambdas"/></g></g><g transform="translate(566.4951870138432,-85.42788000057612)" class="architecture-junction"><g><rect height="80" width="80" fill-opacity="0" id="node-lambdas-emissions-store"/></g></g><g transform="translate(-541.6772502757212,-757.8771640435934)" class="architecture-junction"><g><rect height="80" width="80" fill-opacity="0" id="node-cicd1"/></g></g></g><g class="architecture-groups"><rect class="node-bkg" height="584.7018944397469" width="598.0509572938088" y="395.1425007622827" x="121.4442297200344"/><g><g transform="translate(122.4442297200344, 396.1425007622827)"><g><svg viewBox="0 0 80 80" height="30" width="30" xmlns="http://www.w3.org/2000/svg"><g><rect style="fill: #087ebf; stroke-width: 0px;" height="80" width="80"/><path style="fill: none; stroke: #fff; stroke-miterlimit: 10; stroke-width: 2px;" d="m20,57.86c0,3.94,8.95,7.14,20,7.14s20-3.2,20-7.14" data-name="4" id="IconifyId19816c68b29a10b890"/><path style="fill: none; stroke: #fff; stroke-miterlimit: 10; stroke-width: 2px;" d="m20,45.95c0,3.94,8.95,7.14,20,7.14s20-3.2,20-7.14" data-name="3" id="IconifyId19816c68b29a10b891"/><path style="fill: none; stroke: #fff; stroke-miterlimit: 10; stroke-width: 2px;" d="m20,34.05c0,3.94,8.95,7.14,20,7.14s20-3.2,20-7.14" data-name="2" id="IconifyId19816c68b29a10b892"/><ellipse style="fill: none; stroke: #fff; stroke-miterlimit: 10; stroke-width: 2px;" ry="7.14" rx="20" cy="22.14" cx="40" data-name="1" id="IconifyId19816c68b29a10b893"/><line style="fill: none; stroke: #fff; stroke-miterlimit: 10; stroke-width: 2px;" y2="22.14" x2="20" y1="57.86" x1="20"/><line style="fill: none; stroke: #fff; stroke-miterlimit: 10; stroke-width: 2px;" y2="22.14" x2="60" y1="57.86" x1="60"/></g></svg></g></g><g transform="translate(155.4442297200344, 402.1425007622827)" text-anchor="start" dominant-baseline="start" alignment-baseline="middle" dy="1em"><g><rect style="stroke: none" class="background"/><text style="" y="-10.1"><tspan dy="1.1em" y="-0.1em" x="0" class="text-outer-tspan"><tspan font-weight="normal" class="text-inner-tspan" font-style="normal">Activities</tspan><tspan font-weight="normal" class="text-inner-tspan" font-style="normal"> ingestion</tspan></tspan></text></g></g></g><rect class="node-bkg" height="588.0042329937033" width="550.4272612160623" y="-331.5130942384104" x="-507.53593054092016"/><g><g transform="translate(-506.53593054092016, -330.5130942384104)"><g><svg viewBox="0 0 80 80" height="30" width="30" xmlns="http://www.w3.org/2000/svg"><g><rect style="fill: #087ebf; stroke-width: 0px;" height="80" width="80"/><path style="fill: none; stroke: #fff; stroke-miterlimit: 10; stroke-width: 2px;" d="m65,47.5c0,2.76-2.24,5-5,5H20c-2.76,0-5-2.24-5-5,0-1.87,1.03-3.51,2.56-4.36-.04-.21-.06-.42-.06-.64,0-2.6,2.48-4.74,5.65-4.97,1.65-4.51,6.34-7.76,11.85-7.76.86,0,1.69.08,2.5.23,2.09-1.57,4.69-2.5,7.5-2.5,6.1,0,11.19,4.38,12.28,10.17,2.14.56,3.72,2.51,3.72,4.83,0,.03,0,.07-.01.1,2.29.46,4.01,2.48,4.01,4.9Z"/></g></svg></g></g><g transform="translate(-473.53593054092016, -324.5130942384104)" text-anchor="start" dominant-baseline="start" alignment-baseline="middle" dy="1em"><g><rect style="stroke: none" class="background"/><text style="" y="-10.1"><tspan dy="1.1em" y="-0.1em" x="0" class="text-outer-tspan"><tspan font-weight="normal" class="text-inner-tspan" font-style="normal">Backend</tspan><tspan font-weight="normal" class="text-inner-tspan" font-style="normal"> support</tspan><tspan font-weight="normal" class="text-inner-tspan" font-style="normal"> systems</tspan></tspan></text></g></g></g><rect class="node-bkg" height="792.6532734482037" width="735.0509572938088" y="-536.1621346929107" x="88.4442297200344"/><g><g transform="translate(89.4442297200344, -535.1621346929107)"><g><svg viewBox="0 0 80 80" height="30" width="30" xmlns="http://www.w3.org/2000/svg"><g><rect style="fill: #087ebf; stroke-width: 0px;" height="80" width="80"/><rect style="fill: none; stroke: #fff; stroke-miterlimit: 10; stroke-width: 2px;" ry="2" rx="2" height="45" width="45" y="17.5" x="17.5"/><line style="fill: none; stroke: #fff; stroke-miterlimit: 10; stroke-width: 2px;" y2="32.5" x2="62.5" y1="32.5" x1="17.5"/><line style="fill: none; stroke: #fff; stroke-miterlimit: 10; stroke-width: 2px;" y2="47.5" x2="62.5" y1="47.5" x1="17.5"/><g><path style="fill: #fff; stroke-width: 0px;" d="m56.25,25c0,.27-.45.5-1,.5h-10.5c-.55,0-1-.23-1-.5s.45-.5,1-.5h10.5c.55,0,1,.23,1,.5Z"/><path style="fill: none; stroke: #fff; stroke-miterlimit: 10;" d="m56.25,25c0,.27-.45.5-1,.5h-10.5c-.55,0-1-.23-1-.5s.45-.5,1-.5h10.5c.55,0,1,.23,1,.5Z"/></g><g><path style="fill: #fff; stroke-width: 0px;" d="m56.25,40c0,.27-.45.5-1,.5h-10.5c-.55,0-1-.23-1-.5s.45-.5,1-.5h10.5c.55,0,1,.23,1,.5Z"/><path style="fill: none; stroke: #fff; stroke-miterlimit: 10;" d="m56.25,40c0,.27-.45.5-1,.5h-10.5c-.55,0-1-.23-1-.5s.45-.5,1-.5h10.5c.55,0,1,.23,1,.5Z"/></g><g><path style="fill: #fff; stroke-width: 0px;" d="m56.25,55c0,.27-.45.5-1,.5h-10.5c-.55,0-1-.23-1-.5s.45-.5,1-.5h10.5c.55,0,1,.23,1,.5Z"/><path style="fill: none; stroke: #fff; stroke-miterlimit: 10;" d="m56.25,55c0,.27-.45.5-1,.5h-10.5c-.55,0-1-.23-1-.5s.45-.5,1-.5h10.5c.55,0,1,.23,1,.5Z"/></g><g><circle style="fill: #fff; stroke: #fff; stroke-miterlimit: 10;" r=".75" cy="25" cx="32.5"/><circle style="fill: #fff; stroke: #fff; stroke-miterlimit: 10;" r=".75" cy="25" cx="27.5"/><circle style="fill: #fff; stroke: #fff; stroke-miterlimit: 10;" r=".75" cy="25" cx="22.5"/></g><g><circle style="fill: #fff; stroke: #fff; stroke-miterlimit: 10;" r=".75" cy="40" cx="32.5"/><circle style="fill: #fff; stroke: #fff; stroke-miterlimit: 10;" r=".75" cy="40" cx="27.5"/><circle style="fill: #fff; stroke: #fff; stroke-miterlimit: 10;" r=".75" cy="40" cx="22.5"/></g><g><circle style="fill: #fff; stroke: #fff; stroke-miterlimit: 10;" r=".75" cy="55" cx="32.5"/><circle style="fill: #fff; stroke: #fff; stroke-miterlimit: 10;" r=".75" cy="55" cx="27.5"/><circle style="fill: #fff; stroke: #fff; stroke-miterlimit: 10;" r=".75" cy="55" cx="22.5"/></g></g></svg></g></g><g transform="translate(122.4442297200344, -529.1621346929107)" text-anchor="start" dominant-baseline="start" alignment-baseline="middle" dy="1em"><g><rect style="stroke: none" class="background"/><text style="" y="-10.1"><tspan dy="1.1em" y="-0.1em" x="0" class="text-outer-tspan"><tspan font-weight="normal" class="text-inner-tspan" font-style="normal">Backend</tspan></tspan></text></g></g></g><rect class="node-bkg" height="182" width="606.8420518371431" y="-848.8443952020295" x="306.2599906206524"/><g><g transform="translate(307.2599906206524, -847.8443952020295)"><g><svg viewBox="0 0 80 80" height="30" width="30" xmlns="http://www.w3.org/2000/svg"><g><rect style="fill: #087ebf; stroke-width: 0px;" height="80" width="80"/><circle style="fill: none; stroke: #fff; stroke-miterlimit: 10; stroke-width: 2px;" r="22.5" cy="40" cx="40"/><line style="fill: none; stroke: #fff; stroke-miterlimit: 10; stroke-width: 2px;" y2="62.5" x2="40" y1="17.5" x1="40"/><line style="fill: none; stroke: #fff; stroke-miterlimit: 10; stroke-width: 2px;" y2="40" x2="62.5" y1="40" x1="17.5"/><path style="fill: none; stroke: #fff; stroke-miterlimit: 10; stroke-width: 2px;" d="m39.99,17.51c-15.28,11.1-15.28,33.88,0,44.98"/><path style="fill: none; stroke: #fff; stroke-miterlimit: 10; stroke-width: 2px;" d="m40.01,17.51c15.28,11.1,15.28,33.88,0,44.98"/><line style="fill: none; stroke: #fff; stroke-miterlimit: 10; stroke-width: 2px;" y2="30.1" x2="60.25" y1="30.1" x1="19.75"/><line style="fill: none; stroke: #fff; stroke-miterlimit: 10; stroke-width: 2px;" y2="49.9" x2="60.25" y1="49.9" x1="19.75"/></g></svg></g></g><g transform="translate(340.2599906206524, -841.8443952020295)" text-anchor="start" dominant-baseline="start" alignment-baseline="middle" dy="1em"><g><rect style="stroke: none" class="background"/><text style="" y="-10.1"><tspan dy="1.1em" y="-0.1em" x="0" class="text-outer-tspan"><tspan font-weight="normal" class="text-inner-tspan" font-style="normal">Frontend</tspan></tspan></text></g></g></g><rect class="node-bkg" height="383.16368769842666" width="623.3495843641485" y="-800.3771640435934" x="-785.1020424577953"/><g><g transform="translate(-784.1020424577953, -799.3771640435934)"><g><svg viewBox="0 0 80 80" height="30" width="30" xmlns="http://www.w3.org/2000/svg"><g><rect style="fill: #087ebf; stroke-width: 0px;" height="80" width="80"/><path style="fill: none; stroke: #fff; stroke-miterlimit: 10; stroke-width: 2px;" d="m65,47.5c0,2.76-2.24,5-5,5H20c-2.76,0-5-2.24-5-5,0-1.87,1.03-3.51,2.56-4.36-.04-.21-.06-.42-.06-.64,0-2.6,2.48-4.74,5.65-4.97,1.65-4.51,6.34-7.76,11.85-7.76.86,0,1.69.08,2.5.23,2.09-1.57,4.69-2.5,7.5-2.5,6.1,0,11.19,4.38,12.28,10.17,2.14.56,3.72,2.51,3.72,4.83,0,.03,0,.07-.01.1,2.29.46,4.01,2.48,4.01,4.9Z"/></g></svg></g></g><g transform="translate(-751.1020424577953, -793.3771640435934)" text-anchor="start" dominant-baseline="start" alignment-baseline="middle" dy="1em"><g><rect style="stroke: none" class="background"/><text style="" y="-10.1"><tspan dy="1.1em" y="-0.1em" x="0" class="text-outer-tspan"><tspan font-weight="normal" class="text-inner-tspan" font-style="normal">CICD</tspan></tspan></text></g></g></g></g></svg>