<svg aria-roledescription="architecture" role="graphics-document document" viewBox="-825.184814453125 -888.8471069335938 1778.36962890625 1908.6942138671875" style="max-width: 1778.37px; background-color: white;" xmlns:xlink="http://www.w3.org/1999/xlink" xmlns="http://www.w3.org/2000/svg" width="100%" id="my-svg"><style>#my-svg{font-family:"trebuchet ms",verdana,arial,sans-serif;font-size:16px;fill:#333;}@keyframes edge-animation-frame{from{stroke-dashoffset:0;}}@keyframes dash{to{stroke-dashoffset:0;}}#my-svg .edge-animation-slow{stroke-dasharray:9,5!important;stroke-dashoffset:900;animation:dash 50s linear infinite;stroke-linecap:round;}#my-svg .edge-animation-fast{stroke-dasharray:9,5!important;stroke-dashoffset:900;animation:dash 20s linear infinite;stroke-linecap:round;}#my-svg .error-icon{fill:#552222;}#my-svg .error-text{fill:#552222;stroke:#552222;}#my-svg .edge-thickness-normal{stroke-width:1px;}#my-svg .edge-thickness-thick{stroke-width:3.5px;}#my-svg .edge-pattern-solid{stroke-dasharray:0;}#my-svg .edge-thickness-invisible{stroke-width:0;fill:none;}#my-svg .edge-pattern-dashed{stroke-dasharray:3;}#my-svg .edge-pattern-dotted{stroke-dasharray:2;}#my-svg .marker{fill:#333333;stroke:#333333;}#my-svg .marker.cross{stroke:#333333;}#my-svg svg{font-family:"trebuchet ms",verdana,arial,sans-serif;font-size:16px;}#my-svg p{margin:0;}#my-svg .edge{stroke-width:3;stroke:#333333;fill:none;}#my-svg .arrow{fill:#333333;}#my-svg .node-bkg{fill:none;stroke:hsl(240, 60%, 86.2745098039%);stroke-width:2px;stroke-dasharray:8;}#my-svg .node-icon-text{display:flex;align-items:center;}#my-svg .node-icon-text&gt;div{color:#fff;margin:1px;height:fit-content;text-align:center;overflow:hidden;display:-webkit-box;-webkit-box-orient:vertical;}#my-svg :root{--mermaid-font-family:"trebuchet ms",verdana,arial,sans-serif;}</style><g/><g class="architecture-edges"><g><path class="edge" d="M 405.3432821231966,517.6452127096086 L 405.3432821231966,578.2404151231418 L405.3432821231966,638.835617536675"/><polygon class="arrow" transform="translate(398.67661545652993,627.5022842033417)" points="0,0 13.333333333333334,0 6.666666666666667,13.333333333333334"/></g><g><path class="edge" d="M 365.3432821231966,678.835617536675 L 304.685376450534,678.835617536675 L244.02747077787137,678.835617536675"/><polygon class="arrow" transform="translate(242.02747077787137,672.1689508700084)" points="0,6.666666666666667 13.333333333333334,0 13.333333333333334,13.333333333333334"/></g><g><path class="edge" d="M 204.02747077787137,718.835617536675 L 204.02747077787137,779.5913551104754 L204.02747077787137,880.3470926842758"/></g><g><path class="edge" d="M 204.02747077787137,880.3470926842758 L 304.685376450534,880.3470926842758 L365.3432821231966,880.3470926842758"/><polygon class="arrow" transform="translate(354.0099487898633,873.6804260176092)" points="13.333333333333334,6.666666666666667 0,13.333333333333334 0,0"/></g><g><path class="edge" d="M 445.3432821231966,678.835617536675 L 505.96089455379365,678.835617536675 L606.5785069843907,678.835617536675"/></g><g><path class="edge" d="M 445.3432821231966,880.3470926842758 L 505.96089455379365,880.3470926842758 L566.5785069843907,880.3470926842758"/><polygon class="arrow" transform="translate(555.2451736510574,873.6804260176092)" points="13.333333333333334,6.666666666666667 0,13.333333333333334 0,0"/></g><g><path class="edge" d="M 606.5785069843907,840.3470926842758 L 606.5785069843907,779.5913551104754 L606.5785069843907,678.835617536675"/></g><g><path class="edge" d="M -103.50859213960402,-209.0062775967383 L -103.50859213960402,-147.21329798227126 L-103.50859213960402,-45.420318367804214"/></g><g><path class="edge" d="M -103.50859213960402,116.99917088651459 L -103.50859213960402,55.78942625935518 L-103.50859213960402,-45.42031836780423"/></g><g><path class="edge" d="M -103.50859213960402,-45.42031836780423 L -204.97220819386035,-45.42031836780423 L-306.43582424811666,-45.42031836780423"/></g><g><path class="edge" d="M -306.43582424811666,-209.0062775967383 L -306.43582424811666,-147.21329798227126 L-306.43582424811666,-45.420318367804214"/></g><g><path class="edge" d="M -306.43582424811666,116.99917088651459 L -306.43582424811666,55.78942625935518 L-306.43582424811666,-45.42031836780423"/></g><g><path class="edge" d="M 244.02747077787137,-249.0062775967383 L 304.685376450534,-249.0062775967383 L405.3432821231966,-249.0062775967383"/></g><g><path class="edge" d="M 566.5785069843907,-249.0062775967383 L 505.96089455379365,-249.0062775967383 L405.3432821231966,-249.0062775967383"/></g><g><path class="edge" d="M 405.3432821231966,-249.0062775967383 L 405.3432821231966,-147.21329798227126 L405.3432821231966,-85.42031836780421"/></g><g><path class="edge" d="M 405.3432821231966,-5.420318367804214 L 405.3432821231966,216.11244717090221 L405.3432821231966,437.64521270960864"/></g><g><path class="edge" d="M 321.34328212319656,-45.42031836780423 L 150.9173449917963,-45.42031836780423 L-103.50859213960399,-45.42031836780423"/></g><g><path class="edge" d="M 405.3432821231966,-453.65628541335366 L 304.685376450534,-453.65628541335366 L204.02747077787137,-453.65628541335366"/></g><g><path class="edge" d="M 405.3432821231966,-453.65628541335366 L 505.96089455379365,-453.65628541335366 L606.5785069843907,-453.65628541335366"/></g><g><path class="edge" d="M 204.02747077787137,-453.65628541335366 L 204.02747077787137,-351.331281505046 L204.02747077787137,-289.0062775967383"/></g><g><path class="edge" d="M 606.5785069843907,-453.65628541335366 L 606.5785069843907,-351.331281505046 L606.5785069843907,-289.0062775967383"/></g><g><path class="edge" d="M 445.3432821231966,-45.42031836780423 L 505.96089455379365,-45.42031836780423 L606.5785069843907,-45.42031836780423"/></g><g><path class="edge" d="M 606.5785069843907,-45.42031836780423 L 606.5785069843907,55.78942625935518 L606.5785069843907,116.99917088651459"/></g><g><path class="edge" d="M 606.5785069843907,196.9991708865146 L 606.5785069843907,417.9173942115948 L606.5785069843907,678.835617536675"/></g><g><path class="edge" d="M 445.3432821231966,-766.3470926842758 L 505.96089455379365,-766.3470926842758 L566.5785069843907,-766.3470926842758"/></g><g><path class="edge" d="M 405.3432821231966,-664.3470926842758 L 405.3432821231966,-610.0016890488148 L405.3432821231966,-453.65628541335366"/></g><g><path class="edge" d="M 646.5785069843907,-766.3470926842758 L 706.6316469968608,-766.3470926842758 L766.6847870093309,-766.3470926842758"/></g><g><path class="edge" d="M -662.684787009331,-717.8385915993604 L -602.2223909318808,-717.8385915993604 L-501.7599948544306,-717.8385915993604"/></g><g><path class="edge" d="M -340.8352026995294,-717.8385915993604 L -401.29759877698007,-717.8385915993604 L-501.7599948544306,-717.8385915993604"/></g><g><path class="edge" d="M -501.7599948544306,-717.8385915993604 L -501.7599948544306,-617.2567477499842 L-501.7599948544306,-556.6749039006081"/></g></g><g class="architecture-services"><g transform="translate(365.3432821231966,437.64521270960864)" class="architecture-service"><g transform="translate(40, 80)" text-anchor="middle" dominant-baseline="middle" alignment-baseline="middle" dy="1em"><g><rect style="stroke: none" class="background"/><text style="" y="-10.1"><tspan dy="1.1em" y="-0.1em" x="0" class="text-outer-tspan"><tspan font-weight="normal" class="text-inner-tspan" font-style="normal">Client</tspan><tspan font-weight="normal" class="text-inner-tspan" font-style="normal"> activities</tspan></tspan><tspan dy="1.1em" y="1em" x="0" class="text-outer-tspan"><tspan font-weight="normal" class="text-inner-tspan" font-style="normal">queue</tspan></tspan></text></g></g><g><g><svg viewBox="0 0 80 80" height="80" width="80" xmlns="http://www.w3.org/2000/svg"><g><rect style="fill: #087ebf; stroke-width: 0px;" height="80" width="80"/><text style="fill: #fff; font-family: ArialMT, Arial; font-size: 67.75px;" transform="translate(21.16 64.67)"><tspan y="0" x="0">?</tspan></text></g></svg></g></g></g><g transform="translate(365.3432821231966,638.835617536675)" class="architecture-service"><g transform="translate(40, 80)" text-anchor="middle" dominant-baseline="middle" alignment-baseline="middle" dy="1em"><g><rect style="stroke: none" class="background"/><text style="" y="-10.1"><tspan dy="1.1em" y="-0.1em" x="0" class="text-outer-tspan"><tspan font-weight="normal" class="text-inner-tspan" font-style="normal">Cache</tspan><tspan font-weight="normal" class="text-inner-tspan" font-style="normal"> aware</tspan></tspan><tspan dy="1.1em" y="1em" x="0" class="text-outer-tspan"><tspan font-weight="normal" class="text-inner-tspan" font-style="normal">router</tspan></tspan></text></g></g><g><g><svg viewBox="0 0 80 80" height="80" width="80" xmlns="http://www.w3.org/2000/svg"><g><rect style="fill: #087ebf; stroke-width: 0px;" height="80" width="80"/><text style="fill: #fff; font-family: ArialMT, Arial; font-size: 67.75px;" transform="translate(21.16 64.67)"><tspan y="0" x="0">?</tspan></text></g></svg></g></g></g><g transform="translate(164.02747077787137,638.835617536675)" class="architecture-service"><g transform="translate(40, 80)" text-anchor="middle" dominant-baseline="middle" alignment-baseline="middle" dy="1em"><g><rect style="stroke: none" class="background"/><text style="" y="-10.1"><tspan dy="1.1em" y="-0.1em" x="0" class="text-outer-tspan"><tspan font-weight="normal" class="text-inner-tspan" font-style="normal">AI</tspan><tspan font-weight="normal" class="text-inner-tspan" font-style="normal"> Matcher</tspan></tspan></text></g></g><g><g><svg viewBox="0 0 80 80" height="80" width="80" xmlns="http://www.w3.org/2000/svg"><g><rect style="fill: #087ebf; stroke-width: 0px;" height="80" width="80"/><path style="fill: none; stroke: #fff; stroke-miterlimit: 10; stroke-width: 2px;" d="m65,47.5c0,2.76-2.24,5-5,5H20c-2.76,0-5-2.24-5-5,0-1.87,1.03-3.51,2.56-4.36-.04-.21-.06-.42-.06-.64,0-2.6,2.48-4.74,5.65-4.97,1.65-4.51,6.34-7.76,11.85-7.76.86,0,1.69.08,2.5.23,2.09-1.57,4.69-2.5,7.5-2.5,6.1,0,11.19,4.38,12.28,10.17,2.14.56,3.72,2.51,3.72,4.83,0,.03,0,.07-.01.1,2.29.46,4.01,2.48,4.01,4.9Z"/></g></svg></g></g></g><g transform="translate(365.3432821231966,840.3470926842758)" class="architecture-service"><g transform="translate(40, 80)" text-anchor="middle" dominant-baseline="middle" alignment-baseline="middle" dy="1em"><g><rect style="stroke: none" class="background"/><text style="" y="-10.1"><tspan dy="1.1em" y="-0.1em" x="0" class="text-outer-tspan"><tspan font-weight="normal" class="text-inner-tspan" font-style="normal">EF</tspan><tspan font-weight="normal" class="text-inner-tspan" font-style="normal"> results</tspan><tspan font-weight="normal" class="text-inner-tspan" font-style="normal"> queue</tspan></tspan></text></g></g><g><g><svg viewBox="0 0 80 80" height="80" width="80" xmlns="http://www.w3.org/2000/svg"><g><rect style="fill: #087ebf; stroke-width: 0px;" height="80" width="80"/><text style="fill: #fff; font-family: ArialMT, Arial; font-size: 67.75px;" transform="translate(21.16 64.67)"><tspan y="0" x="0">?</tspan></text></g></svg></g></g></g><g transform="translate(566.5785069843907,840.3470926842758)" class="architecture-service"><g transform="translate(40, 80)" text-anchor="middle" dominant-baseline="middle" alignment-baseline="middle" dy="1em"><g><rect style="stroke: none" class="background"/><text style="" y="-10.1"><tspan dy="1.1em" y="-0.1em" x="0" class="text-outer-tspan"><tspan font-weight="normal" class="text-inner-tspan" font-style="normal">EF</tspan><tspan font-weight="normal" class="text-inner-tspan" font-style="normal"> result</tspan></tspan><tspan dy="1.1em" y="1em" x="0" class="text-outer-tspan"><tspan font-weight="normal" class="text-inner-tspan" font-style="normal">processor</tspan></tspan></text></g></g><g><g><svg viewBox="0 0 80 80" height="80" width="80" xmlns="http://www.w3.org/2000/svg"><g><rect style="fill: #087ebf; stroke-width: 0px;" height="80" width="80"/><text style="fill: #fff; font-family: ArialMT, Arial; font-size: 67.75px;" transform="translate(21.16 64.67)"><tspan y="0" x="0">?</tspan></text></g></svg></g></g></g><g transform="translate(-143.50859213960402,116.9991708865146)" class="architecture-service"><g transform="translate(40, 80)" text-anchor="middle" dominant-baseline="middle" alignment-baseline="middle" dy="1em"><g><rect style="stroke: none" class="background"/><text style="" y="-10.1"><tspan dy="1.1em" y="-0.1em" x="0" class="text-outer-tspan"><tspan font-weight="normal" class="text-inner-tspan" font-style="normal">Auth</tspan><tspan font-weight="normal" class="text-inner-tspan" font-style="normal"> by</tspan><tspan font-weight="normal" class="text-inner-tspan" font-style="normal"> Cognito</tspan></tspan></text></g></g><g><g><svg viewBox="0 0 80 80" height="80" width="80" xmlns="http://www.w3.org/2000/svg"><g><rect style="fill: #087ebf; stroke-width: 0px;" height="80" width="80"/><text style="fill: #fff; font-family: ArialMT, Arial; font-size: 67.75px;" transform="translate(21.16 64.67)"><tspan y="0" x="0">?</tspan></text></g></svg></g></g></g><g transform="translate(-143.50859213960402,-289.0062775967383)" class="architecture-service"><g transform="translate(40, 80)" text-anchor="middle" dominant-baseline="middle" alignment-baseline="middle" dy="1em"><g><rect style="stroke: none" class="background"/><text style="" y="-10.1"><tspan dy="1.1em" y="-0.1em" x="0" class="text-outer-tspan"><tspan font-weight="normal" class="text-inner-tspan" font-style="normal">Identity</tspan></tspan><tspan dy="1.1em" y="1em" x="0" class="text-outer-tspan"><tspan font-weight="normal" class="text-inner-tspan" font-style="normal">Management</tspan><tspan font-weight="normal" class="text-inner-tspan" font-style="normal"> by</tspan></tspan><tspan dy="1.1em" y="2.1em" x="0" class="text-outer-tspan"><tspan font-weight="normal" class="text-inner-tspan" font-style="normal">IAM</tspan></tspan></text></g></g><g><g><svg viewBox="0 0 80 80" height="80" width="80" xmlns="http://www.w3.org/2000/svg"><g><rect style="fill: #087ebf; stroke-width: 0px;" height="80" width="80"/><text style="fill: #fff; font-family: ArialMT, Arial; font-size: 67.75px;" transform="translate(21.16 64.67)"><tspan y="0" x="0">?</tspan></text></g></svg></g></g></g><g transform="translate(-346.43582424811666,-289.0062775967383)" class="architecture-service"><g transform="translate(40, 80)" text-anchor="middle" dominant-baseline="middle" alignment-baseline="middle" dy="1em"><g><rect style="stroke: none" class="background"/><text style="" y="-10.1"><tspan dy="1.1em" y="-0.1em" x="0" class="text-outer-tspan"><tspan font-weight="normal" class="text-inner-tspan" font-style="normal">Key</tspan></tspan><tspan dy="1.1em" y="1em" x="0" class="text-outer-tspan"><tspan font-weight="normal" class="text-inner-tspan" font-style="normal">Management</tspan><tspan font-weight="normal" class="text-inner-tspan" font-style="normal"> by</tspan></tspan><tspan dy="1.1em" y="2.1em" x="0" class="text-outer-tspan"><tspan font-weight="normal" class="text-inner-tspan" font-style="normal">KMS</tspan></tspan></text></g></g><g><g><svg viewBox="0 0 80 80" height="80" width="80" xmlns="http://www.w3.org/2000/svg"><g><rect style="fill: #087ebf; stroke-width: 0px;" height="80" width="80"/><text style="fill: #fff; font-family: ArialMT, Arial; font-size: 67.75px;" transform="translate(21.16 64.67)"><tspan y="0" x="0">?</tspan></text></g></svg></g></g></g><g transform="translate(-346.43582424811666,116.9991708865146)" class="architecture-service"><g transform="translate(40, 80)" text-anchor="middle" dominant-baseline="middle" alignment-baseline="middle" dy="1em"><g><rect style="stroke: none" class="background"/><text style="" y="-10.1"><tspan dy="1.1em" y="-0.1em" x="0" class="text-outer-tspan"><tspan font-weight="normal" class="text-inner-tspan" font-style="normal">Logs</tspan><tspan font-weight="normal" class="text-inner-tspan" font-style="normal"> Monitoring</tspan></tspan><tspan dy="1.1em" y="1em" x="0" class="text-outer-tspan"><tspan font-weight="normal" class="text-inner-tspan" font-style="normal">and</tspan><tspan font-weight="normal" class="text-inner-tspan" font-style="normal"> Alarms</tspan><tspan font-weight="normal" class="text-inner-tspan" font-style="normal"> by</tspan></tspan><tspan dy="1.1em" y="2.1em" x="0" class="text-outer-tspan"><tspan font-weight="normal" class="text-inner-tspan" font-style="normal">Cloudwatch</tspan></tspan></text></g></g><g><g><svg viewBox="0 0 80 80" height="80" width="80" xmlns="http://www.w3.org/2000/svg"><g><rect style="fill: #087ebf; stroke-width: 0px;" height="80" width="80"/><text style="fill: #fff; font-family: ArialMT, Arial; font-size: 67.75px;" transform="translate(21.16 64.67)"><tspan y="0" x="0">?</tspan></text></g></svg></g></g></g><g transform="translate(164.02747077787137,-289.0062775967383)" class="architecture-service"><g transform="translate(40, 80)" text-anchor="middle" dominant-baseline="middle" alignment-baseline="middle" dy="1em"><g><rect style="stroke: none" class="background"/><text style="" y="-10.1"><tspan dy="1.1em" y="-0.1em" x="0" class="text-outer-tspan"><tspan font-weight="normal" class="text-inner-tspan" font-style="normal">API</tspan><tspan font-weight="normal" class="text-inner-tspan" font-style="normal"> by</tspan><tspan font-weight="normal" class="text-inner-tspan" font-style="normal"> API</tspan></tspan><tspan dy="1.1em" y="1em" x="0" class="text-outer-tspan"><tspan font-weight="normal" class="text-inner-tspan" font-style="normal">Gateway</tspan></tspan></text></g></g><g><g><svg viewBox="0 0 80 80" height="80" width="80" xmlns="http://www.w3.org/2000/svg"><g><rect style="fill: #087ebf; stroke-width: 0px;" height="80" width="80"/><text style="fill: #fff; font-family: ArialMT, Arial; font-size: 67.75px;" transform="translate(21.16 64.67)"><tspan y="0" x="0">?</tspan></text></g></svg></g></g></g><g transform="translate(365.3432821231966,-85.42031836780423)" class="architecture-service"><g transform="translate(40, 80)" text-anchor="middle" dominant-baseline="middle" alignment-baseline="middle" dy="1em"><g><rect style="stroke: none" class="background"/><text style="" y="-10.1"><tspan dy="1.1em" y="-0.1em" x="0" class="text-outer-tspan"><tspan font-weight="normal" class="text-inner-tspan" font-style="normal">Lambdas</tspan></tspan></text></g></g><g><g><svg viewBox="0 0 80 80" height="80" width="80" xmlns="http://www.w3.org/2000/svg"><g><rect style="fill: #087ebf; stroke-width: 0px;" height="80" width="80"/><text style="fill: #fff; font-family: ArialMT, Arial; font-size: 67.75px;" transform="translate(21.16 64.67)"><tspan y="0" x="0">?</tspan></text></g></svg></g></g></g><g transform="translate(566.5785069843907,-289.0062775967383)" class="architecture-service"><g transform="translate(40, 80)" text-anchor="middle" dominant-baseline="middle" alignment-baseline="middle" dy="1em"><g><rect style="stroke: none" class="background"/><text style="" y="-10.1"><tspan dy="1.1em" y="-0.1em" x="0" class="text-outer-tspan"><tspan font-weight="normal" class="text-inner-tspan" font-style="normal">Submitted</tspan></tspan><tspan dy="1.1em" y="1em" x="0" class="text-outer-tspan"><tspan font-weight="normal" class="text-inner-tspan" font-style="normal">activities</tspan><tspan font-weight="normal" class="text-inner-tspan" font-style="normal"> store</tspan></tspan><tspan dy="1.1em" y="2.1em" x="0" class="text-outer-tspan"><tspan font-weight="normal" class="text-inner-tspan" font-style="normal">by</tspan><tspan font-weight="normal" class="text-inner-tspan" font-style="normal"> S3</tspan><tspan font-weight="normal" class="text-inner-tspan" font-style="normal"> presigned</tspan></tspan><tspan dy="1.1em" y="3.2em" x="0" class="text-outer-tspan"><tspan font-weight="normal" class="text-inner-tspan" font-style="normal">URLs</tspan></tspan></text></g></g><g><g><svg viewBox="0 0 80 80" height="80" width="80" xmlns="http://www.w3.org/2000/svg"><g><rect style="fill: #087ebf; stroke-width: 0px;" height="80" width="80"/><text style="fill: #fff; font-family: ArialMT, Arial; font-size: 67.75px;" transform="translate(21.16 64.67)"><tspan y="0" x="0">?</tspan></text></g></svg></g></g></g><g transform="translate(566.5785069843907,116.9991708865146)" class="architecture-service"><g transform="translate(40, 80)" text-anchor="middle" dominant-baseline="middle" alignment-baseline="middle" dy="1em"><g><rect style="stroke: none" class="background"/><text style="" y="-10.1"><tspan dy="1.1em" y="-0.1em" x="0" class="text-outer-tspan"><tspan font-weight="normal" class="text-inner-tspan" font-style="normal">Emissions</tspan><tspan font-weight="normal" class="text-inner-tspan" font-style="normal"> store</tspan></tspan><tspan dy="1.1em" y="1em" x="0" class="text-outer-tspan"><tspan font-weight="normal" class="text-inner-tspan" font-style="normal">by</tspan><tspan font-weight="normal" class="text-inner-tspan" font-style="normal"> Aurora</tspan></tspan></text></g></g><g><g><svg viewBox="0 0 80 80" height="80" width="80" xmlns="http://www.w3.org/2000/svg"><g><rect style="fill: #087ebf; stroke-width: 0px;" height="80" width="80"/><text style="fill: #fff; font-family: ArialMT, Arial; font-size: 67.75px;" transform="translate(21.16 64.67)"><tspan y="0" x="0">?</tspan></text></g></svg></g></g></g><g transform="translate(365.3432821231966,-806.3470926842758)" class="architecture-service"><g transform="translate(40, 80)" text-anchor="middle" dominant-baseline="middle" alignment-baseline="middle" dy="1em"><g><rect style="stroke: none" class="background"/><text style="" y="-10.1"><tspan dy="1.1em" y="-0.1em" x="0" class="text-outer-tspan"><tspan font-weight="normal" class="text-inner-tspan" font-style="normal">React</tspan><tspan font-weight="normal" class="text-inner-tspan" font-style="normal"> Frontend</tspan></tspan></text></g></g><g><g><svg viewBox="0 0 80 80" height="80" width="80" xmlns="http://www.w3.org/2000/svg"><g><rect style="fill: #087ebf; stroke-width: 0px;" height="80" width="80"/><text style="fill: #fff; font-family: ArialMT, Arial; font-size: 67.75px;" transform="translate(21.16 64.67)"><tspan y="0" x="0">?</tspan></text></g></svg></g></g></g><g transform="translate(566.5785069843907,-806.3470926842758)" class="architecture-service"><g transform="translate(40, 80)" text-anchor="middle" dominant-baseline="middle" alignment-baseline="middle" dy="1em"><g><rect style="stroke: none" class="background"/><text style="" y="-10.1"><tspan dy="1.1em" y="-0.1em" x="0" class="text-outer-tspan"><tspan font-weight="normal" class="text-inner-tspan" font-style="normal">CDN</tspan></tspan></text></g></g><g><g><svg viewBox="0 0 80 80" height="80" width="80" xmlns="http://www.w3.org/2000/svg"><g><rect style="fill: #087ebf; stroke-width: 0px;" height="80" width="80"/><text style="fill: #fff; font-family: ArialMT, Arial; font-size: 67.75px;" transform="translate(21.16 64.67)"><tspan y="0" x="0">?</tspan></text></g></svg></g></g></g><g transform="translate(766.6847870093309,-806.3470926842758)" class="architecture-service"><g transform="translate(40, 80)" text-anchor="middle" dominant-baseline="middle" alignment-baseline="middle" dy="1em"><g><rect style="stroke: none" class="background"/><text style="" y="-10.1"><tspan dy="1.1em" y="-0.1em" x="0" class="text-outer-tspan"><tspan font-weight="normal" class="text-inner-tspan" font-style="normal">Frontend</tspan></tspan><tspan dy="1.1em" y="1em" x="0" class="text-outer-tspan"><tspan font-weight="normal" class="text-inner-tspan" font-style="normal">sources</tspan></tspan></text></g></g><g><g><svg viewBox="0 0 80 80" height="80" width="80" xmlns="http://www.w3.org/2000/svg"><g><rect style="fill: #087ebf; stroke-width: 0px;" height="80" width="80"/><text style="fill: #fff; font-family: ArialMT, Arial; font-size: 67.75px;" transform="translate(21.16 64.67)"><tspan y="0" x="0">?</tspan></text></g></svg></g></g></g><g transform="translate(-742.684787009331,-757.8385915993604)" class="architecture-service"><g transform="translate(40, 80)" text-anchor="middle" dominant-baseline="middle" alignment-baseline="middle" dy="1em"><g><rect style="stroke: none" class="background"/><text style="" y="-10.1"><tspan dy="1.1em" y="-0.1em" x="0" class="text-outer-tspan"><tspan font-weight="normal" class="text-inner-tspan" font-style="normal">Github</tspan></tspan></text></g></g><g><g><svg viewBox="0 0 80 80" height="80" width="80" xmlns="http://www.w3.org/2000/svg"><g><rect style="fill: #087ebf; stroke-width: 0px;" height="80" width="80"/><text style="fill: #fff; font-family: ArialMT, Arial; font-size: 67.75px;" transform="translate(21.16 64.67)"><tspan y="0" x="0">?</tspan></text></g></svg></g></g></g><g transform="translate(-541.7599948544306,-556.6749039006081)" class="architecture-service"><g transform="translate(40, 80)" text-anchor="middle" dominant-baseline="middle" alignment-baseline="middle" dy="1em"><g><rect style="stroke: none" class="background"/><text style="" y="-10.1"><tspan dy="1.1em" y="-0.1em" x="0" class="text-outer-tspan"><tspan font-weight="normal" class="text-inner-tspan" font-style="normal">CICD</tspan><tspan font-weight="normal" class="text-inner-tspan" font-style="normal"> pipeline</tspan><tspan font-weight="normal" class="text-inner-tspan" font-style="normal"> by</tspan></tspan><tspan dy="1.1em" y="1em" x="0" class="text-outer-tspan"><tspan font-weight="normal" class="text-inner-tspan" font-style="normal">Github</tspan><tspan font-weight="normal" class="text-inner-tspan" font-style="normal"> Actions</tspan></tspan></text></g></g><g><g><svg viewBox="0 0 80 80" height="80" width="80" xmlns="http://www.w3.org/2000/svg"><g><rect style="fill: #087ebf; stroke-width: 0px;" height="80" width="80"/><text style="fill: #fff; font-family: ArialMT, Arial; font-size: 67.75px;" transform="translate(21.16 64.67)"><tspan y="0" x="0">?</tspan></text></g></svg></g></g></g><g transform="translate(-340.8352026995294,-757.8385915993604)" class="architecture-service"><g transform="translate(40, 80)" text-anchor="middle" dominant-baseline="middle" alignment-baseline="middle" dy="1em"><g><rect style="stroke: none" class="background"/><text style="" y="-10.1"><tspan dy="1.1em" y="-0.1em" x="0" class="text-outer-tspan"><tspan font-weight="normal" class="text-inner-tspan" font-style="normal">Infra</tspan><tspan font-weight="normal" class="text-inner-tspan" font-style="normal"> as</tspan><tspan font-weight="normal" class="text-inner-tspan" font-style="normal"> Code</tspan><tspan font-weight="normal" class="text-inner-tspan" font-style="normal"> by</tspan></tspan><tspan dy="1.1em" y="1em" x="0" class="text-outer-tspan"><tspan font-weight="normal" class="text-inner-tspan" font-style="normal">Terraform</tspan></tspan></text></g></g><g><g><svg viewBox="0 0 80 80" height="80" width="80" xmlns="http://www.w3.org/2000/svg"><g><rect style="fill: #087ebf; stroke-width: 0px;" height="80" width="80"/><text style="fill: #fff; font-family: ArialMT, Arial; font-size: 67.75px;" transform="translate(21.16 64.67)"><tspan y="0" x="0">?</tspan></text></g></svg></g></g></g><g transform="translate(164.02747077787137,840.3470926842758)" class="architecture-junction"><g><rect height="80" width="80" fill-opacity="0" id="node-ai-matcher-to-queue"/></g></g><g transform="translate(566.5785069843907,638.835617536675)" class="architecture-junction"><g><rect height="80" width="80" fill-opacity="0" id="node-router-store-processor"/></g></g><g transform="translate(-143.50859213960402,-85.42031836780423)" class="architecture-junction"><g><rect height="80" width="80" fill-opacity="0" id="node-support1"/></g></g><g transform="translate(-346.43582424811666,-85.42031836780423)" class="architecture-junction"><g><rect height="80" width="80" fill-opacity="0" id="node-support2"/></g></g><g transform="translate(365.3432821231966,-493.65628541335366)" class="architecture-junction"><g><rect height="80" width="80" fill-opacity="0" id="node-frontend-backend"/></g></g><g transform="translate(164.02747077787137,-493.65628541335366)" class="architecture-junction"><g><rect height="80" width="80" fill-opacity="0" id="node-frontend-backend-left"/></g></g><g transform="translate(566.5785069843907,-493.65628541335366)" class="architecture-junction"><g><rect height="80" width="80" fill-opacity="0" id="node-frontend-backend-right"/></g></g><g transform="translate(365.3432821231966,-289.0062775967383)" class="architecture-junction"><g><rect height="80" width="80" fill-opacity="0" id="node-public-lambdas"/></g></g><g transform="translate(566.5785069843907,-85.42031836780423)" class="architecture-junction"><g><rect height="80" width="80" fill-opacity="0" id="node-lambdas-emissions-store"/></g></g><g transform="translate(-541.7599948544306,-757.8385915993604)" class="architecture-junction"><g><rect height="80" width="80" fill-opacity="0" id="node-cicd1"/></g></g></g><g class="architecture-groups"><rect class="node-bkg" height="584.7018799746672" width="598.0510362065194" y="395.1452127096086" x="121.52747077787137"/><g><g transform="translate(122.52747077787137, 396.1452127096086)"><g><svg viewBox="0 0 80 80" height="30" width="30" xmlns="http://www.w3.org/2000/svg"><g><rect style="fill: #087ebf; stroke-width: 0px;" height="80" width="80"/><path style="fill: none; stroke: #fff; stroke-miterlimit: 10; stroke-width: 2px;" d="m20,57.86c0,3.94,8.95,7.14,20,7.14s20-3.2,20-7.14" data-name="4" id="IconifyId1983fa29d4fdd1b3f0"/><path style="fill: none; stroke: #fff; stroke-miterlimit: 10; stroke-width: 2px;" d="m20,45.95c0,3.94,8.95,7.14,20,7.14s20-3.2,20-7.14" data-name="3" id="IconifyId1983fa29d4fdd1b3f1"/><path style="fill: none; stroke: #fff; stroke-miterlimit: 10; stroke-width: 2px;" d="m20,34.05c0,3.94,8.95,7.14,20,7.14s20-3.2,20-7.14" data-name="2" id="IconifyId1983fa29d4fdd1b3f2"/><ellipse style="fill: none; stroke: #fff; stroke-miterlimit: 10; stroke-width: 2px;" ry="7.14" rx="20" cy="22.14" cx="40" data-name="1" id="IconifyId1983fa29d4fdd1b3f3"/><line style="fill: none; stroke: #fff; stroke-miterlimit: 10; stroke-width: 2px;" y2="22.14" x2="20" y1="57.86" x1="20"/><line style="fill: none; stroke: #fff; stroke-miterlimit: 10; stroke-width: 2px;" y2="22.14" x2="60" y1="57.86" x1="60"/></g></svg></g></g><g transform="translate(155.52747077787137, 402.1452127096086)" text-anchor="start" dominant-baseline="start" alignment-baseline="middle" dy="1em"><g><rect style="stroke: none" class="background"/><text style="" y="-10.1"><tspan dy="1.1em" y="-0.1em" x="0" class="text-outer-tspan"><tspan font-weight="normal" class="text-inner-tspan" font-style="normal">Activities</tspan><tspan font-weight="normal" class="text-inner-tspan" font-style="normal"> ingestion</tspan></tspan></text></g></g></g><rect class="node-bkg" height="588.0054484832528" width="550.4272321085126" y="-331.5062775967383" x="-507.43582424811666"/><g><g transform="translate(-506.43582424811666, -330.5062775967383)"><g><svg viewBox="0 0 80 80" height="30" width="30" xmlns="http://www.w3.org/2000/svg"><g><rect style="fill: #087ebf; stroke-width: 0px;" height="80" width="80"/><path style="fill: none; stroke: #fff; stroke-miterlimit: 10; stroke-width: 2px;" d="m65,47.5c0,2.76-2.24,5-5,5H20c-2.76,0-5-2.24-5-5,0-1.87,1.03-3.51,2.56-4.36-.04-.21-.06-.42-.06-.64,0-2.6,2.48-4.74,5.65-4.97,1.65-4.51,6.34-7.76,11.85-7.76.86,0,1.69.08,2.5.23,2.09-1.57,4.69-2.5,7.5-2.5,6.1,0,11.19,4.38,12.28,10.17,2.14.56,3.72,2.51,3.72,4.83,0,.03,0,.07-.01.1,2.29.46,4.01,2.48,4.01,4.9Z"/></g></svg></g></g><g transform="translate(-473.43582424811666, -324.5062775967383)" text-anchor="start" dominant-baseline="start" alignment-baseline="middle" dy="1em"><g><rect style="stroke: none" class="background"/><text style="" y="-10.1"><tspan dy="1.1em" y="-0.1em" x="0" class="text-outer-tspan"><tspan font-weight="normal" class="text-inner-tspan" font-style="normal">Backend</tspan><tspan font-weight="normal" class="text-inner-tspan" font-style="normal"> support</tspan><tspan font-weight="normal" class="text-inner-tspan" font-style="normal"> systems</tspan></tspan></text></g></g></g><rect class="node-bkg" height="792.6554562998683" width="735.0510362065194" y="-536.1562854133537" x="88.52747077787137"/><g><g transform="translate(89.52747077787137, -535.1562854133537)"><g><svg viewBox="0 0 80 80" height="30" width="30" xmlns="http://www.w3.org/2000/svg"><g><rect style="fill: #087ebf; stroke-width: 0px;" height="80" width="80"/><rect style="fill: none; stroke: #fff; stroke-miterlimit: 10; stroke-width: 2px;" ry="2" rx="2" height="45" width="45" y="17.5" x="17.5"/><line style="fill: none; stroke: #fff; stroke-miterlimit: 10; stroke-width: 2px;" y2="32.5" x2="62.5" y1="32.5" x1="17.5"/><line style="fill: none; stroke: #fff; stroke-miterlimit: 10; stroke-width: 2px;" y2="47.5" x2="62.5" y1="47.5" x1="17.5"/><g><path style="fill: #fff; stroke-width: 0px;" d="m56.25,25c0,.27-.45.5-1,.5h-10.5c-.55,0-1-.23-1-.5s.45-.5,1-.5h10.5c.55,0,1,.23,1,.5Z"/><path style="fill: none; stroke: #fff; stroke-miterlimit: 10;" d="m56.25,25c0,.27-.45.5-1,.5h-10.5c-.55,0-1-.23-1-.5s.45-.5,1-.5h10.5c.55,0,1,.23,1,.5Z"/></g><g><path style="fill: #fff; stroke-width: 0px;" d="m56.25,40c0,.27-.45.5-1,.5h-10.5c-.55,0-1-.23-1-.5s.45-.5,1-.5h10.5c.55,0,1,.23,1,.5Z"/><path style="fill: none; stroke: #fff; stroke-miterlimit: 10;" d="m56.25,40c0,.27-.45.5-1,.5h-10.5c-.55,0-1-.23-1-.5s.45-.5,1-.5h10.5c.55,0,1,.23,1,.5Z"/></g><g><path style="fill: #fff; stroke-width: 0px;" d="m56.25,55c0,.27-.45.5-1,.5h-10.5c-.55,0-1-.23-1-.5s.45-.5,1-.5h10.5c.55,0,1,.23,1,.5Z"/><path style="fill: none; stroke: #fff; stroke-miterlimit: 10;" d="m56.25,55c0,.27-.45.5-1,.5h-10.5c-.55,0-1-.23-1-.5s.45-.5,1-.5h10.5c.55,0,1,.23,1,.5Z"/></g><g><circle style="fill: #fff; stroke: #fff; stroke-miterlimit: 10;" r=".75" cy="25" cx="32.5"/><circle style="fill: #fff; stroke: #fff; stroke-miterlimit: 10;" r=".75" cy="25" cx="27.5"/><circle style="fill: #fff; stroke: #fff; stroke-miterlimit: 10;" r=".75" cy="25" cx="22.5"/></g><g><circle style="fill: #fff; stroke: #fff; stroke-miterlimit: 10;" r=".75" cy="40" cx="32.5"/><circle style="fill: #fff; stroke: #fff; stroke-miterlimit: 10;" r=".75" cy="40" cx="27.5"/><circle style="fill: #fff; stroke: #fff; stroke-miterlimit: 10;" r=".75" cy="40" cx="22.5"/></g><g><circle style="fill: #fff; stroke: #fff; stroke-miterlimit: 10;" r=".75" cy="55" cx="32.5"/><circle style="fill: #fff; stroke: #fff; stroke-miterlimit: 10;" r=".75" cy="55" cx="27.5"/><circle style="fill: #fff; stroke: #fff; stroke-miterlimit: 10;" r=".75" cy="55" cx="22.5"/></g></g></svg></g></g><g transform="translate(122.52747077787137, -529.1562854133537)" text-anchor="start" dominant-baseline="start" alignment-baseline="middle" dy="1em"><g><rect style="stroke: none" class="background"/><text style="" y="-10.1"><tspan dy="1.1em" y="-0.1em" x="0" class="text-outer-tspan"><tspan font-weight="normal" class="text-inner-tspan" font-style="normal">Backend</tspan></tspan></text></g></g></g><rect class="node-bkg" height="182" width="606.8415048861343" y="-848.8470926842758" x="306.34328212319656"/><g><g transform="translate(307.34328212319656, -847.8470926842758)"><g><svg viewBox="0 0 80 80" height="30" width="30" xmlns="http://www.w3.org/2000/svg"><g><rect style="fill: #087ebf; stroke-width: 0px;" height="80" width="80"/><circle style="fill: none; stroke: #fff; stroke-miterlimit: 10; stroke-width: 2px;" r="22.5" cy="40" cx="40"/><line style="fill: none; stroke: #fff; stroke-miterlimit: 10; stroke-width: 2px;" y2="62.5" x2="40" y1="17.5" x1="40"/><line style="fill: none; stroke: #fff; stroke-miterlimit: 10; stroke-width: 2px;" y2="40" x2="62.5" y1="40" x1="17.5"/><path style="fill: none; stroke: #fff; stroke-miterlimit: 10; stroke-width: 2px;" d="m39.99,17.51c-15.28,11.1-15.28,33.88,0,44.98"/><path style="fill: none; stroke: #fff; stroke-miterlimit: 10; stroke-width: 2px;" d="m40.01,17.51c15.28,11.1,15.28,33.88,0,44.98"/><line style="fill: none; stroke: #fff; stroke-miterlimit: 10; stroke-width: 2px;" y2="30.1" x2="60.25" y1="30.1" x1="19.75"/><line style="fill: none; stroke: #fff; stroke-miterlimit: 10; stroke-width: 2px;" y2="49.9" x2="60.25" y1="49.9" x1="19.75"/></g></svg></g></g><g transform="translate(340.34328212319656, -841.8470926842758)" text-anchor="start" dominant-baseline="start" alignment-baseline="middle" dy="1em"><g><rect style="stroke: none" class="background"/><text style="" y="-10.1"><tspan dy="1.1em" y="-0.1em" x="0" class="text-outer-tspan"><tspan font-weight="normal" class="text-inner-tspan" font-style="normal">Frontend</tspan></tspan></text></g></g></g><rect class="node-bkg" height="383.16368769875226" width="623.3495843098017" y="-800.3385915993604" x="-785.1847870093311"/><g><g transform="translate(-784.1847870093311, -799.3385915993604)"><g><svg viewBox="0 0 80 80" height="30" width="30" xmlns="http://www.w3.org/2000/svg"><g><rect style="fill: #087ebf; stroke-width: 0px;" height="80" width="80"/><path style="fill: none; stroke: #fff; stroke-miterlimit: 10; stroke-width: 2px;" d="m65,47.5c0,2.76-2.24,5-5,5H20c-2.76,0-5-2.24-5-5,0-1.87,1.03-3.51,2.56-4.36-.04-.21-.06-.42-.06-.64,0-2.6,2.48-4.74,5.65-4.97,1.65-4.51,6.34-7.76,11.85-7.76.86,0,1.69.08,2.5.23,2.09-1.57,4.69-2.5,7.5-2.5,6.1,0,11.19,4.38,12.28,10.17,2.14.56,3.72,2.51,3.72,4.83,0,.03,0,.07-.01.1,2.29.46,4.01,2.48,4.01,4.9Z"/></g></svg></g></g><g transform="translate(-751.1847870093311, -793.3385915993604)" text-anchor="start" dominant-baseline="start" alignment-baseline="middle" dy="1em"><g><rect style="stroke: none" class="background"/><text style="" y="-10.1"><tspan dy="1.1em" y="-0.1em" x="0" class="text-outer-tspan"><tspan font-weight="normal" class="text-inner-tspan" font-style="normal">CICD</tspan></tspan></text></g></g></g></g></svg>