<svg aria-roledescription="architecture" role="graphics-document document" viewBox="-539.8899841308594 -760.1732177734375 1330.780029296875 1651.3465576171875" style="max-width: 1330.78px; background-color: white;" xmlns:xlink="http://www.w3.org/1999/xlink" xmlns="http://www.w3.org/2000/svg" width="100%" id="my-svg"><style>#my-svg{font-family:"trebuchet ms",verdana,arial,sans-serif;font-size:16px;fill:#333;}@keyframes edge-animation-frame{from{stroke-dashoffset:0;}}@keyframes dash{to{stroke-dashoffset:0;}}#my-svg .edge-animation-slow{stroke-dasharray:9,5!important;stroke-dashoffset:900;animation:dash 50s linear infinite;stroke-linecap:round;}#my-svg .edge-animation-fast{stroke-dasharray:9,5!important;stroke-dashoffset:900;animation:dash 20s linear infinite;stroke-linecap:round;}#my-svg .error-icon{fill:#552222;}#my-svg .error-text{fill:#552222;stroke:#552222;}#my-svg .edge-thickness-normal{stroke-width:1px;}#my-svg .edge-thickness-thick{stroke-width:3.5px;}#my-svg .edge-pattern-solid{stroke-dasharray:0;}#my-svg .edge-thickness-invisible{stroke-width:0;fill:none;}#my-svg .edge-pattern-dashed{stroke-dasharray:3;}#my-svg .edge-pattern-dotted{stroke-dasharray:2;}#my-svg .marker{fill:#333333;stroke:#333333;}#my-svg .marker.cross{stroke:#333333;}#my-svg svg{font-family:"trebuchet ms",verdana,arial,sans-serif;font-size:16px;}#my-svg p{margin:0;}#my-svg .edge{stroke-width:3;stroke:#333333;fill:none;}#my-svg .arrow{fill:#333333;}#my-svg .node-bkg{fill:none;stroke:hsl(240, 60%, 86.2745098039%);stroke-width:2px;stroke-dasharray:8;}#my-svg .node-icon-text{display:flex;align-items:center;}#my-svg .node-icon-text&gt;div{color:#fff;margin:1px;height:fit-content;text-align:center;overflow:hidden;display:-webkit-box;-webkit-box-orient:vertical;}#my-svg :root{--mermaid-font-family:"trebuchet ms",verdana,arial,sans-serif;}</style><g/><g class="architecture-edges"><g><path class="edge" d="M -182.9943441680408,389.40332315272383 L -182.9943441680408,449.8299576873182 L-182.9943441680408,510.2565922219125"/><polygon class="arrow" transform="translate(-189.66101083470747,498.9232588885792)" points="0,0 13.333333333333334,0 6.666666666666667,13.333333333333334"/></g><g><path class="edge" d="M -142.9943441680408,550.2565922219126 L -82.22602070948446,550.2565922219126 L-21.457697250928106,550.2565922219126"/><polygon class="arrow" transform="translate(-32.79103058426144,543.5899255552459)" points="13.333333333333334,6.666666666666667 0,13.333333333333334 0,0"/></g><g><path class="edge" d="M -222.9943441680408,550.2565922219126 L -283.6921574858509,550.2565922219126 L-344.3899708036609,550.2565922219126"/><polygon class="arrow" transform="translate(-346.3899708036609,543.5899255552459)" points="0,6.666666666666667 13.333333333333334,0 13.333333333333334,13.333333333333334"/></g><g><path class="edge" d="M -384.3899708036609,590.2565922219126 L -384.3899708036609,650.9649036968198 L-384.3899708036609,751.673215171727"/></g><g><path class="edge" d="M -384.3899708036609,751.673215171727 L -283.6921574858509,751.673215171727 L-222.9943441680408,751.673215171727"/><polygon class="arrow" transform="translate(-234.32767750137415,745.0065485050603)" points="13.333333333333334,6.666666666666667 0,13.333333333333334 0,0"/></g><g><path class="edge" d="M -142.9943441680408,751.673215171727 L -82.22602070948446,751.673215171727 L-21.457697250928106,751.673215171727"/><polygon class="arrow" transform="translate(-32.79103058426144,745.0065485050603)" points="13.333333333333334,6.666666666666667 0,13.333333333333334 0,0"/></g><g><path class="edge" d="M 18.542302749071894,711.673215171727 L 18.542302749071894,650.9649036968198 L18.542302749071894,590.2565922219126"/><polygon class="arrow" transform="translate(11.875636082405226,588.2565922219126)" points="6.666666666666667,0 13.333333333333334,13.333333333333334 0,13.333333333333334"/></g><g><path class="edge" d="M 346.89427453309435,-125.61535133962781 L 346.89427453309435,-64.7296946828703 L346.89427453309435,36.1559619738872"/></g><g><path class="edge" d="M 346.89427453309435,197.91530049478814 L 346.89427453309435,137.03563123433767 L346.89427453309435,36.15596197388719"/></g><g><path class="edge" d="M 346.89427453309435,36.15596197388719 L 448.3921226683776,36.15596197388719 L549.8899708036608,36.15596197388719"/></g><g><path class="edge" d="M 549.8899708036608,-125.61535133962781 L 549.8899708036608,-64.7296946828703 L549.8899708036608,36.1559619738872"/></g><g><path class="edge" d="M 549.8899708036608,197.91530049478814 L 549.8899708036608,137.03563123433767 L549.8899708036608,36.15596197388719"/></g><g><path class="edge" d="M -344.3899708036609,-165.6153513396278 L -283.6921574858509,-165.6153513396278 L-182.9943441680408,-165.6153513396278"/></g><g><path class="edge" d="M -21.457697250928106,-165.6153513396278 L -82.22602070948446,-165.6153513396278 L-182.9943441680408,-165.6153513396278"/></g><g><path class="edge" d="M -182.9943441680408,-165.6153513396278 L -182.9943441680408,-64.7296946828703 L-182.9943441680408,-3.8440380261127984"/></g><g><path class="edge" d="M -182.9943441680408,76.1559619738872 L -182.9943441680408,192.77964256330552 L-182.9943441680408,309.40332315272383"/></g><g><path class="edge" d="M -98.99434416804081,36.15596197388719 L 81.94996518252674,36.15596197388719 L346.8942745330943,36.15596197388719"/></g><g><path class="edge" d="M -182.9943441680408,-368.0252211131548 L -283.6921574858509,-368.0252211131548 L-384.3899708036609,-368.0252211131548"/></g><g><path class="edge" d="M -182.9943441680408,-368.0252211131548 L -82.22602070948446,-368.0252211131548 L18.542302749071894,-368.0252211131548"/></g><g><path class="edge" d="M -384.3899708036609,-368.0252211131548 L -384.3899708036609,-266.8202862263913 L-384.3899708036609,-205.6153513396278"/></g><g><path class="edge" d="M 18.542302749071894,-368.0252211131548 L 18.542302749071894,-266.8202862263913 L18.542302749071894,-205.6153513396278"/></g><g><path class="edge" d="M -142.9943441680408,-637.673215171727 L -82.22602070948446,-637.673215171727 L-21.457697250928106,-637.673215171727"/></g><g><path class="edge" d="M -182.9943441680408,-535.673215171727 L -182.9943441680408,-502.8492181424409 L-182.9943441680408,-368.0252211131548"/></g><g><path class="edge" d="M 58.542302749071894,-637.673215171727 L 120.74769616727826,-637.673215171727 L182.95308958548463,-637.673215171727"/></g></g><g class="architecture-services"><g transform="translate(-222.9943441680408,309.40332315272383)" class="architecture-service"><g transform="translate(40, 80)" text-anchor="middle" dominant-baseline="middle" alignment-baseline="middle" dy="1em"><g><rect style="stroke: none" class="background"/><text style="" y="-10.1"><tspan dy="1.1em" y="-0.1em" x="0" class="text-outer-tspan"><tspan font-weight="normal" class="text-inner-tspan" font-style="normal">Client</tspan><tspan font-weight="normal" class="text-inner-tspan" font-style="normal"> activities</tspan></tspan><tspan dy="1.1em" y="1em" x="0" class="text-outer-tspan"><tspan font-weight="normal" class="text-inner-tspan" font-style="normal">queue</tspan></tspan></text></g></g><g><g><svg viewBox="0 0 256 256" height="80" width="80" xmlns="http://www.w3.org/2000/svg"><defs><linearGradient y2="0%" y1="100%" x2="100%" x1="0%" id="IconifyId19804414d46ffb8510"><stop stop-color="#B0084D" offset="0%"/><stop stop-color="#FF4F8B" offset="100%"/></linearGradient></defs><path d="M0 0h256v256H0z" fill="url(#IconifyId19804414d46ffb8510)"/><path d="m91.894 139.8l9.607-9.49a3.18 3.18 0 0 0 .944-2.246a3.17 3.17 0 0 0-.932-2.253l-9.606-9.599l-4.54 4.486l4.12 4.12H76.83v6.364h14.71l-4.16 4.107zm73.315.29l12.808-9.551a3.19 3.19 0 0 0 1.278-2.542a3.19 3.19 0 0 0-1.281-2.549l-12.808-9.538l-3.843 5.09l5.123 3.818h-12.808v6.364h12.805L161.36 135zM112.666 128c0 6.755-1.169 13.124-3.352 18.666c5.76-2.214 12.257-3.321 18.748-3.321c6.49 0 12.987 1.107 18.744 3.321c-2.18-5.542-3.349-11.911-3.349-18.666s1.169-13.12 3.35-18.666c-11.518 4.425-25.972 4.425-37.493 0c2.183 5.545 3.352 11.911 3.352 18.666M96.98 158.884a3.163 3.163 0 0 1 0-4.499c5.812-5.775 9.283-15.64 9.283-26.385c0-10.744-3.471-20.61-9.283-26.385a3.163 3.163 0 0 1 0-4.499a3.213 3.213 0 0 1 4.528 0c12.408 12.329 40.701 12.329 53.11 0a3.213 3.213 0 0 1 4.527 0a3.163 3.163 0 0 1 0 4.499c-5.812 5.775-9.283 15.64-9.283 26.385c0 10.744 3.471 20.61 9.283 26.385a3.163 3.163 0 0 1 0 4.499a3.2 3.2 0 0 1-2.264.932c-.82 0-1.64-.312-2.264-.932c-12.408-12.329-40.701-12.329-53.109 0a3.213 3.213 0 0 1-4.528 0m114.224-30.868c0-2.965-1.162-5.752-3.272-7.85a11.16 11.16 0 0 0-7.9-3.244c-2.86 0-5.722 1.078-7.9 3.245c-4.357 4.327-4.357 11.368 0 15.698c4.355 4.327 11.438 4.33 15.8 0a11 11 0 0 0 3.272-7.85m1.255 12.348c-3.426 3.404-7.925 5.106-12.427 5.106s-9-1.702-12.427-5.106c-6.856-6.809-6.856-17.887 0-24.696c6.856-6.815 18.005-6.809 24.854 0c6.856 6.809 6.856 17.887 0 24.696M67.136 128.089c0-2.965-1.162-5.752-3.272-7.849a11.13 11.13 0 0 0-7.9-3.252a11.15 11.15 0 0 0-7.9 3.252a11 11 0 0 0-3.269 7.85a11 11 0 0 0 3.27 7.848c4.223 4.19 11.578 4.19 15.799 0a11 11 0 0 0 3.272-7.849m1.255 12.348c-3.426 3.404-7.925 5.106-12.427 5.106c-4.499 0-8.998-1.702-12.427-5.106c-6.85-6.809-6.85-17.887 0-24.696c6.856-6.808 18.002-6.808 24.854 0c6.853 6.809 6.853 17.887 0 24.696m107.276 35.102c-12.783 12.705-29.783 19.698-47.862 19.698c-18.085 0-35.081-6.993-47.864-19.698c-8.767-8.708-13.593-19.115-16.097-26.308l-6.052 2.08c2.725 7.827 7.993 19.163 17.621 28.727c13.993 13.907 32.597 21.562 52.392 21.562c19.792 0 38.396-7.655 52.39-21.562c8.085-8.027 14.524-18.233 18.139-28.736l-6.058-2.062c-3.305 9.602-9.203 18.944-16.61 26.3M63.84 106.772l-6.045-2.087c3.874-11.084 10.137-21.291 17.637-28.74C89.419 62.053 108.017 54.4 127.805 54.4c19.79 0 38.387 7.652 52.37 21.546c7.893 7.842 14.512 18.316 18.153 28.74l-6.046 2.086c-3.34-9.544-9.401-19.14-16.635-26.327c-12.773-12.695-29.766-19.682-47.842-19.682c-18.078 0-35.068 6.987-47.845 19.682c-6.826 6.786-12.552 16.137-16.119 26.327" fill="#FFF"/></svg></g></g></g><g transform="translate(-222.9943441680408,510.2565922219125)" class="architecture-service"><g transform="translate(40, 80)" text-anchor="middle" dominant-baseline="middle" alignment-baseline="middle" dy="1em"><g><rect style="stroke: none" class="background"/><text style="" y="-10.1"><tspan dy="1.1em" y="-0.1em" x="0" class="text-outer-tspan"><tspan font-weight="normal" class="text-inner-tspan" font-style="normal">Cache</tspan><tspan font-weight="normal" class="text-inner-tspan" font-style="normal"> aware</tspan></tspan><tspan dy="1.1em" y="1em" x="0" class="text-outer-tspan"><tspan font-weight="normal" class="text-inner-tspan" font-style="normal">router</tspan></tspan></text></g></g><g><g><svg viewBox="0 0 256 256" height="80" width="80" xmlns="http://www.w3.org/2000/svg"><defs><linearGradient y2="0%" y1="100%" x2="100%" x1="0%" id="IconifyId19804414d46ffb8511"><stop stop-color="#C8511B" offset="0%"/><stop stop-color="#F90" offset="100%"/></linearGradient></defs><path d="M0 0h256v256H0z" fill="url(#IconifyId19804414d46ffb8511)"/><path d="M89.624 211.2H49.89l43.945-91.853l19.912 40.992zm7.079-100.63a3.22 3.22 0 0 0-2.887-1.805h-.01a3.2 3.2 0 0 0-2.886 1.82L41.913 213.022a3.203 3.203 0 0 0 2.893 4.58l46.848-.001a3.21 3.21 0 0 0 2.9-1.83l25.65-54.08a3.18 3.18 0 0 0-.016-2.762zM207.985 211.2h-39.477L105.174 78.624a3.21 3.21 0 0 0-2.897-1.824h-25.83l.03-32h50.626l63.042 132.573a3.21 3.21 0 0 0 2.897 1.827h14.943zm3.208-38.4h-16.121L132.03 40.227a3.21 3.21 0 0 0-2.9-1.827H73.273a3.206 3.206 0 0 0-3.208 3.197l-.035 38.4c0 .851.333 1.664.94 2.265c.6.602 1.414.938 2.267.938h27.017l63.337 132.576a3.2 3.2 0 0 0 2.893 1.824h44.709a3.203 3.203 0 0 0 3.207-3.2V176c0-1.766-1.434-3.2-3.207-3.2" fill="#FFF"/></svg></g></g></g><g transform="translate(-424.3899708036609,510.2565922219125)" class="architecture-service"><g transform="translate(40, 80)" text-anchor="middle" dominant-baseline="middle" alignment-baseline="middle" dy="1em"><g><rect style="stroke: none" class="background"/><text style="" y="-10.1"><tspan dy="1.1em" y="-0.1em" x="0" class="text-outer-tspan"><tspan font-weight="normal" class="text-inner-tspan" font-style="normal">AI</tspan><tspan font-weight="normal" class="text-inner-tspan" font-style="normal"> Matcher</tspan></tspan></text></g></g><g><g><svg viewBox="0 0 80 80" height="80" width="80" xmlns="http://www.w3.org/2000/svg"><g><rect style="fill: #087ebf; stroke-width: 0px;" height="80" width="80"/><path style="fill: none; stroke: #fff; stroke-miterlimit: 10; stroke-width: 2px;" d="m65,47.5c0,2.76-2.24,5-5,5H20c-2.76,0-5-2.24-5-5,0-1.87,1.03-3.51,2.56-4.36-.04-.21-.06-.42-.06-.64,0-2.6,2.48-4.74,5.65-4.97,1.65-4.51,6.34-7.76,11.85-7.76.86,0,1.69.08,2.5.23,2.09-1.57,4.69-2.5,7.5-2.5,6.1,0,11.19,4.38,12.28,10.17,2.14.56,3.72,2.51,3.72,4.83,0,.03,0,.07-.01.1,2.29.46,4.01,2.48,4.01,4.9Z"/></g></svg></g></g></g><g transform="translate(-222.9943441680408,711.673215171727)" class="architecture-service"><g transform="translate(40, 80)" text-anchor="middle" dominant-baseline="middle" alignment-baseline="middle" dy="1em"><g><rect style="stroke: none" class="background"/><text style="" y="-10.1"><tspan dy="1.1em" y="-0.1em" x="0" class="text-outer-tspan"><tspan font-weight="normal" class="text-inner-tspan" font-style="normal">EF</tspan><tspan font-weight="normal" class="text-inner-tspan" font-style="normal"> results</tspan><tspan font-weight="normal" class="text-inner-tspan" font-style="normal"> queue</tspan></tspan></text></g></g><g><g><svg viewBox="0 0 256 256" height="80" width="80" xmlns="http://www.w3.org/2000/svg"><defs><linearGradient y2="0%" y1="100%" x2="100%" x1="0%" id="IconifyId19804414d46ffb8512"><stop stop-color="#B0084D" offset="0%"/><stop stop-color="#FF4F8B" offset="100%"/></linearGradient></defs><path d="M0 0h256v256H0z" fill="url(#IconifyId19804414d46ffb8512)"/><path d="m91.894 139.8l9.607-9.49a3.18 3.18 0 0 0 .944-2.246a3.17 3.17 0 0 0-.932-2.253l-9.606-9.599l-4.54 4.486l4.12 4.12H76.83v6.364h14.71l-4.16 4.107zm73.315.29l12.808-9.551a3.19 3.19 0 0 0 1.278-2.542a3.19 3.19 0 0 0-1.281-2.549l-12.808-9.538l-3.843 5.09l5.123 3.818h-12.808v6.364h12.805L161.36 135zM112.666 128c0 6.755-1.169 13.124-3.352 18.666c5.76-2.214 12.257-3.321 18.748-3.321c6.49 0 12.987 1.107 18.744 3.321c-2.18-5.542-3.349-11.911-3.349-18.666s1.169-13.12 3.35-18.666c-11.518 4.425-25.972 4.425-37.493 0c2.183 5.545 3.352 11.911 3.352 18.666M96.98 158.884a3.163 3.163 0 0 1 0-4.499c5.812-5.775 9.283-15.64 9.283-26.385c0-10.744-3.471-20.61-9.283-26.385a3.163 3.163 0 0 1 0-4.499a3.213 3.213 0 0 1 4.528 0c12.408 12.329 40.701 12.329 53.11 0a3.213 3.213 0 0 1 4.527 0a3.163 3.163 0 0 1 0 4.499c-5.812 5.775-9.283 15.64-9.283 26.385c0 10.744 3.471 20.61 9.283 26.385a3.163 3.163 0 0 1 0 4.499a3.2 3.2 0 0 1-2.264.932c-.82 0-1.64-.312-2.264-.932c-12.408-12.329-40.701-12.329-53.109 0a3.213 3.213 0 0 1-4.528 0m114.224-30.868c0-2.965-1.162-5.752-3.272-7.85a11.16 11.16 0 0 0-7.9-3.244c-2.86 0-5.722 1.078-7.9 3.245c-4.357 4.327-4.357 11.368 0 15.698c4.355 4.327 11.438 4.33 15.8 0a11 11 0 0 0 3.272-7.85m1.255 12.348c-3.426 3.404-7.925 5.106-12.427 5.106s-9-1.702-12.427-5.106c-6.856-6.809-6.856-17.887 0-24.696c6.856-6.815 18.005-6.809 24.854 0c6.856 6.809 6.856 17.887 0 24.696M67.136 128.089c0-2.965-1.162-5.752-3.272-7.849a11.13 11.13 0 0 0-7.9-3.252a11.15 11.15 0 0 0-7.9 3.252a11 11 0 0 0-3.269 7.85a11 11 0 0 0 3.27 7.848c4.223 4.19 11.578 4.19 15.799 0a11 11 0 0 0 3.272-7.849m1.255 12.348c-3.426 3.404-7.925 5.106-12.427 5.106c-4.499 0-8.998-1.702-12.427-5.106c-6.85-6.809-6.85-17.887 0-24.696c6.856-6.808 18.002-6.808 24.854 0c6.853 6.809 6.853 17.887 0 24.696m107.276 35.102c-12.783 12.705-29.783 19.698-47.862 19.698c-18.085 0-35.081-6.993-47.864-19.698c-8.767-8.708-13.593-19.115-16.097-26.308l-6.052 2.08c2.725 7.827 7.993 19.163 17.621 28.727c13.993 13.907 32.597 21.562 52.392 21.562c19.792 0 38.396-7.655 52.39-21.562c8.085-8.027 14.524-18.233 18.139-28.736l-6.058-2.062c-3.305 9.602-9.203 18.944-16.61 26.3M63.84 106.772l-6.045-2.087c3.874-11.084 10.137-21.291 17.637-28.74C89.419 62.053 108.017 54.4 127.805 54.4c19.79 0 38.387 7.652 52.37 21.546c7.893 7.842 14.512 18.316 18.153 28.74l-6.046 2.086c-3.34-9.544-9.401-19.14-16.635-26.327c-12.773-12.695-29.766-19.682-47.842-19.682c-18.078 0-35.068 6.987-47.845 19.682c-6.826 6.786-12.552 16.137-16.119 26.327" fill="#FFF"/></svg></g></g></g><g transform="translate(-21.457697250928106,711.673215171727)" class="architecture-service"><g transform="translate(40, 80)" text-anchor="middle" dominant-baseline="middle" alignment-baseline="middle" dy="1em"><g><rect style="stroke: none" class="background"/><text style="" y="-10.1"><tspan dy="1.1em" y="-0.1em" x="0" class="text-outer-tspan"><tspan font-weight="normal" class="text-inner-tspan" font-style="normal">EF</tspan><tspan font-weight="normal" class="text-inner-tspan" font-style="normal"> result</tspan></tspan><tspan dy="1.1em" y="1em" x="0" class="text-outer-tspan"><tspan font-weight="normal" class="text-inner-tspan" font-style="normal">processor</tspan></tspan></text></g></g><g><g><svg viewBox="0 0 256 256" height="80" width="80" xmlns="http://www.w3.org/2000/svg"><defs><linearGradient y2="0%" y1="100%" x2="100%" x1="0%" id="IconifyId19804414d46ffb8513"><stop stop-color="#C8511B" offset="0%"/><stop stop-color="#F90" offset="100%"/></linearGradient></defs><path d="M0 0h256v256H0z" fill="url(#IconifyId19804414d46ffb8513)"/><path d="M89.624 211.2H49.89l43.945-91.853l19.912 40.992zm7.079-100.63a3.22 3.22 0 0 0-2.887-1.805h-.01a3.2 3.2 0 0 0-2.886 1.82L41.913 213.022a3.203 3.203 0 0 0 2.893 4.58l46.848-.001a3.21 3.21 0 0 0 2.9-1.83l25.65-54.08a3.18 3.18 0 0 0-.016-2.762zM207.985 211.2h-39.477L105.174 78.624a3.21 3.21 0 0 0-2.897-1.824h-25.83l.03-32h50.626l63.042 132.573a3.21 3.21 0 0 0 2.897 1.827h14.943zm3.208-38.4h-16.121L132.03 40.227a3.21 3.21 0 0 0-2.9-1.827H73.273a3.206 3.206 0 0 0-3.208 3.197l-.035 38.4c0 .851.333 1.664.94 2.265c.6.602 1.414.938 2.267.938h27.017l63.337 132.576a3.2 3.2 0 0 0 2.893 1.824h44.709a3.203 3.203 0 0 0 3.207-3.2V176c0-1.766-1.434-3.2-3.207-3.2" fill="#FFF"/></svg></g></g></g><g transform="translate(-21.457697250928106,510.2565922219125)" class="architecture-service"><g transform="translate(40, 80)" text-anchor="middle" dominant-baseline="middle" alignment-baseline="middle" dy="1em"><g><rect style="stroke: none" class="background"/><text style="" y="-10.1"><tspan dy="1.1em" y="-0.1em" x="0" class="text-outer-tspan"><tspan font-weight="normal" class="text-inner-tspan" font-style="normal">EF</tspan><tspan font-weight="normal" class="text-inner-tspan" font-style="normal"> Matching</tspan></tspan><tspan dy="1.1em" y="1em" x="0" class="text-outer-tspan"><tspan font-weight="normal" class="text-inner-tspan" font-style="normal">Cache</tspan></tspan></text></g></g><g><g><svg viewBox="0 0 256 256" height="80" width="80" xmlns="http://www.w3.org/2000/svg"><defs><linearGradient y2="0%" y1="100%" x2="100%" x1="0%" id="IconifyId19804414d46ffb8514"><stop stop-color="#2E27AD" offset="0%"/><stop stop-color="#527FFF" offset="100%"/></linearGradient></defs><path d="M0 0h256v256H0z" fill="url(#IconifyId19804414d46ffb8514)"/><path d="M166.675 175.52c-10.682 8.637-33.091 13.2-54.534 13.2c-21.447 0-43.863-4.566-54.541-13.202v17.392h.003c0 8.675 22.397 18.342 54.538 18.342c32.115 0 54.499-9.655 54.534-18.323zm.003-33.049l6.4-.035v.035c0 3.866-1.936 7.475-5.705 10.779c4.57 4.021 5.705 7.966 5.705 10.775c0 .02-.003.035-.003.054v28.831h.003c0 16.035-31.398 24.69-60.937 24.69c-29.469 0-60.781-8.617-60.931-24.578c0-.016-.01-.032-.01-.048v-28.958c0-.007.006-.016.006-.026c.01-2.809 1.15-6.738 5.712-10.75c-4.534-4.005-5.686-7.912-5.715-10.699h.003c0-.013-.006-.022-.006-.035v-28.958c0-.01.006-.02.006-.029c.01-2.809 1.152-6.738 5.716-10.743c-4.538-4.009-5.69-7.92-5.719-10.703h.003c0-.012-.006-.025-.006-.038V63.08c0-.01.006-.019.006-.029C51.261 47.04 82.624 38.4 112.141 38.4c16.675 0 32.694 2.65 43.948 7.271l-2.448 5.866c-10.505-4.314-25.632-6.79-41.5-6.79c-32.141 0-54.538 9.668-54.538 18.349c0 8.677 22.397 18.345 54.538 18.345c.867.01 1.715 0 2.573-.032l.268 6.342c-.947.038-1.894.038-2.841.038c-21.447 0-43.863-4.568-54.541-13.204V91.97h.003v.073c.032 3.329 3.447 6.236 6.307 8.083c8.608 5.488 24.032 9.236 41.232 10.014l-.29 6.341c-17.425-.79-32.682-4.405-42.503-9.946c-2.42 1.809-4.746 4.256-4.746 7.03c0 8.677 22.397 18.345 54.538 18.345c3.152 0 6.281-.105 9.305-.315l.445 6.332c-3.168.22-6.451.33-9.75.33c-21.447 0-43.863-4.567-54.541-13.203v17.383h.003c.032 3.403 3.447 6.307 6.307 8.157c9.844 6.281 28.327 10.192 48.23 10.192h1.409v6.347h-1.408c-20.221 0-38.599-3.754-49.837-10.099c-2.406 1.806-4.7 4.24-4.7 6.992c0 8.677 22.396 18.348 54.537 18.348c32.115 0 54.499-9.655 54.534-18.326v-.035c-.006-2.758-2.31-5.192-4.723-6.998a45 45 0 0 1-5.14 2.523l-2.45-5.865c2.323-.955 4.339-1.987 5.993-3.072c2.886-1.883 6.323-4.825 6.323-8.129m27.411-46.418h-17.932c-1.06 0-2.055-.52-2.647-1.39a3.14 3.14 0 0 1-.33-2.951l10.91-27.27h-41.31l-19.2 38.086h20.423c1.02 0 1.98.486 2.586 1.301c.598.82.774 1.87.464 2.838l-18.228 56.818zm9.821-.974l-79.996 82.648a3.22 3.22 0 0 1-2.31.974a3.2 3.2 0 0 1-1.636-.444a3.16 3.16 0 0 1-1.414-3.692l21.075-65.69h-21.226a3.21 3.21 0 0 1-2.723-1.504a3.15 3.15 0 0 1-.138-3.088l22.4-44.434a3.2 3.2 0 0 1 2.861-1.755h48a3.21 3.21 0 0 1 2.646 1.39a3.15 3.15 0 0 1 .33 2.955L180.87 89.706h20.73c1.28 0 2.441.761 2.944 1.93a3.16 3.16 0 0 1-.634 3.443M62.256 194.158c4.534 2.555 10.243 4.703 16.966 6.38l1.562-6.158c-6.077-1.514-11.389-3.5-15.366-5.742zm16.966-44.403l1.562-6.154c-6.077-1.517-11.389-3.504-15.366-5.745l-3.162 5.52c4.534 2.555 10.24 4.704 16.966 6.38M62.256 92.594l3.162-5.52c3.97 2.241 9.286 4.225 15.366 5.745l-1.562 6.154c-6.732-1.679-12.438-3.827-16.966-6.38" fill="#FFF"/></svg></g></g></g><g transform="translate(306.89427453309435,197.91530049478814)" class="architecture-service"><g transform="translate(40, 80)" text-anchor="middle" dominant-baseline="middle" alignment-baseline="middle" dy="1em"><g><rect style="stroke: none" class="background"/><text style="" y="-10.1"><tspan dy="1.1em" y="-0.1em" x="0" class="text-outer-tspan"><tspan font-weight="normal" class="text-inner-tspan" font-style="normal">Auth</tspan><tspan font-weight="normal" class="text-inner-tspan" font-style="normal"> by</tspan><tspan font-weight="normal" class="text-inner-tspan" font-style="normal"> Cognito</tspan></tspan></text></g></g><g><g><svg viewBox="0 0 256 256" height="80" width="80" xmlns="http://www.w3.org/2000/svg"><defs><linearGradient y2="0%" y1="100%" x2="100%" x1="0%" id="IconifyId19804414d46ffb8515"><stop stop-color="#BD0816" offset="0%"/><stop stop-color="#FF5252" offset="100%"/></linearGradient></defs><path d="M0 0h256v256H0z" fill="url(#IconifyId19804414d46ffb8515)"/><path d="M54.283 114.585H95.58v-6.344H54.283zm142.119 46.154l4.491 4.485l-23.59 23.556a3.18 3.18 0 0 1-4.491 0l-11.868-11.848l4.491-4.485l9.623 9.605zm14.619 17.481c-.725 5.964-3.152 11.511-7.03 16.048a30.6 30.6 0 0 1-10.058 7.701a30 30 0 0 1-16.506 2.665a30.05 30.05 0 0 1-15.06-6.29c-8.33-6.614-12.535-16.87-11.255-27.436a30.3 30.3 0 0 1 16.185-23.301a29.9 29.9 0 0 1 13.726-3.337c1.223 0 2.456.076 3.685.225c9.962 1.215 18.65 7.302 23.231 16.282a30.24 30.24 0 0 1 3.082 17.443m2.58-20.32c-5.544-10.868-16.059-18.233-28.124-19.702a36.25 36.25 0 0 0-21.096 3.772a36.64 36.64 0 0 0-19.578 28.177c-1.544 12.768 3.542 25.167 13.612 33.164a36.4 36.4 0 0 0 18.24 7.62q2.221.27 4.438.269a36.3 36.3 0 0 0 15.566-3.502a36.9 36.9 0 0 0 12.163-9.313c4.692-5.488 7.634-12.197 8.508-19.404a36.54 36.54 0 0 0-3.73-21.081M86.05 133.618h12.706v-6.344H86.05zm-31.768 0h25.414v-6.344H54.283zM51.54 51.144h142.086c3.742 0 6.786 3.702 6.786 8.25v23.47h-9.53v-15.86a3.173 3.173 0 0 0-3.177-3.172H114.64a3.173 3.173 0 0 0-3.176 3.172v15.86h-66.71v-23.47c0-4.472 3.11-8.25 6.785-8.25m99.68 30.8c7.377 0 13.378 5.933 13.378 13.222c0 4.806-2.653 9.228-6.922 11.543a13.6 13.6 0 0 1-12.939.003c-4.253-2.322-6.893-6.744-6.893-11.546c0-7.29 5.997-13.221 13.377-13.221M44.754 150.748V89.209h66.71v53.925a3.17 3.17 0 0 0 3.177 3.172h33.21v-6.344h-26.532c.276-12.695 8.716-23.66 20.87-27.163c5.617 2.624 12.323 2.65 18.025-.003c6.919 1.999 12.973 6.62 16.725 12.815l5.435-3.286c-3.85-6.347-9.692-11.302-16.467-14.182c3.176-3.521 5.044-8.102 5.044-12.977c0-10.788-8.853-19.565-19.73-19.565c-10.88 0-19.73 8.777-19.73 19.565c0 4.856 1.848 9.421 5.003 12.942a35.17 35.17 0 0 0-18.676 18.525V70.176h66.71v50.753h6.354V89.21h9.53l.003 47.58h6.353l-.003-77.394c0-8.048-5.893-14.595-13.139-14.595H51.54c-7.246 0-13.139 6.547-13.139 14.595v91.352c0 8.047 5.893 14.591 13.139 14.591h85.338v-6.344H51.539c-3.676 0-6.786-3.775-6.786-8.247" fill="#FFF"/></svg></g></g></g><g transform="translate(306.89427453309435,-205.6153513396278)" class="architecture-service"><g transform="translate(40, 80)" text-anchor="middle" dominant-baseline="middle" alignment-baseline="middle" dy="1em"><g><rect style="stroke: none" class="background"/><text style="" y="-10.1"><tspan dy="1.1em" y="-0.1em" x="0" class="text-outer-tspan"><tspan font-weight="normal" class="text-inner-tspan" font-style="normal">Identity</tspan></tspan><tspan dy="1.1em" y="1em" x="0" class="text-outer-tspan"><tspan font-weight="normal" class="text-inner-tspan" font-style="normal">Management</tspan><tspan font-weight="normal" class="text-inner-tspan" font-style="normal"> by</tspan></tspan><tspan dy="1.1em" y="2.1em" x="0" class="text-outer-tspan"><tspan font-weight="normal" class="text-inner-tspan" font-style="normal">IAM</tspan></tspan></text></g></g><g><g><svg viewBox="0 0 256 256" height="80" width="80" xmlns="http://www.w3.org/2000/svg"><defs><linearGradient y2="0%" y1="100%" x2="100%" x1="0%" id="IconifyId19804414d46ffb8516"><stop stop-color="#BD0816" offset="0%"/><stop stop-color="#FF5252" offset="100%"/></linearGradient></defs><path d="M0 0h256v256H0z" fill="url(#IconifyId19804414d46ffb8516)"/><path d="M44.8 188.8h166.4V67.2H44.8zM217.6 64v128a3.2 3.2 0 0 1-3.2 3.2H41.6a3.2 3.2 0 0 1-3.2-3.2V64a3.2 3.2 0 0 1 3.2-3.2h172.8a3.2 3.2 0 0 1 3.2 3.2m-76.8 89.6h48v-6.4h-48zm41.6-19.2h16V128h-16zm-41.6 0h25.6V128h-25.6zm-48 12.8c0-1.763-1.434-3.2-3.2-3.2a3.203 3.203 0 0 0-3.2 3.2c0 1.763 1.434 3.2 3.2 3.2s3.2-1.437 3.2-3.2m6.4 0c0 4.166-2.685 7.683-6.4 9.011v6.989h-6.4v-6.992c-3.715-1.325-6.4-4.842-6.4-9.008c0-5.293 4.307-9.6 9.6-9.6s9.6 4.307 9.6 9.6m-38.4 25.578l57.58.022l.007-12.8H105.6v-6.4h12.787l.007-9.6H105.6v-6.4h12.797l.003-9.578L60.82 128zm9.6-51.175l38.4.016V99.2c.003-7.37-8.97-13.834-19.2-13.84h-.013c-10.214 0-19.174 6.467-19.18 13.84zm-16 54.371l.02-51.174a3.2 3.2 0 0 1 3.2-3.2l6.38.003l.006-22.403c.007-11.162 11.482-20.24 25.581-20.24h.013c14.118.006 25.603 9.088 25.6 20.24v22.422l6.4.004a3.2 3.2 0 0 1 3.2 3.2L124.78 176a3.2 3.2 0 0 1-3.2 3.2l-63.98-.026a3.2 3.2 0 0 1-3.2-3.2M192 115.2h6.4v-6.4H192zm-51.2 0H176v-6.4h-35.2z" fill="#FFF"/></svg></g></g></g><g transform="translate(509.8899708036609,-205.6153513396278)" class="architecture-service"><g transform="translate(40, 80)" text-anchor="middle" dominant-baseline="middle" alignment-baseline="middle" dy="1em"><g><rect style="stroke: none" class="background"/><text style="" y="-10.1"><tspan dy="1.1em" y="-0.1em" x="0" class="text-outer-tspan"><tspan font-weight="normal" class="text-inner-tspan" font-style="normal">Key</tspan></tspan><tspan dy="1.1em" y="1em" x="0" class="text-outer-tspan"><tspan font-weight="normal" class="text-inner-tspan" font-style="normal">Management</tspan><tspan font-weight="normal" class="text-inner-tspan" font-style="normal"> by</tspan></tspan><tspan dy="1.1em" y="2.1em" x="0" class="text-outer-tspan"><tspan font-weight="normal" class="text-inner-tspan" font-style="normal">KMS</tspan></tspan></text></g></g><g><g><svg viewBox="0 0 256 256" height="80" width="80" xmlns="http://www.w3.org/2000/svg"><defs><linearGradient y2="0%" y1="100%" x2="100%" x1="0%" id="IconifyId19804414d46ffb8517"><stop stop-color="#BD0816" offset="0%"/><stop stop-color="#FF5252" offset="100%"/></linearGradient></defs><path d="M0 0h256v256H0z" fill="url(#IconifyId19804414d46ffb8517)"/><path d="M166.39 167.988h22.4v-6.4h-22.4zm-28.8 0h22.4v-6.4h-22.4zm-28.8 0h22.4v-6.4h-22.4zm35.2-25.6c0-3.53 2.874-6.4 6.4-6.4c3.53 0 6.4 2.87 6.4 6.4s-2.87 6.4-6.4 6.4c-3.526 0-6.4-2.87-6.4-6.4m19.2 0c0-7.059-5.738-12.8-12.8-12.8c-7.06 0-12.8 5.741-12.8 12.8s5.74 12.8 12.8 12.8c7.062 0 12.8-5.74 12.8-12.8m-44.8-6.4c3.53 0 6.4 2.87 6.4 6.4s-2.87 6.4-6.4 6.4c-3.526 0-6.4-2.87-6.4-6.4s2.874-6.4 6.4-6.4m0 19.2c7.062 0 12.8-5.74 12.8-12.8c0-7.059-5.738-12.8-12.8-12.8c-7.06 0-12.8 5.741-12.8 12.8s5.74 12.8 12.8 12.8m92.8-48v73.6a3.2 3.2 0 0 1-3.2 3.2h-99.2v-6.4h96v-67.2h-70.4v-6.4h73.6a3.2 3.2 0 0 1 3.2 3.2m-112.963 16.15a3.2 3.2 0 0 0-2.237 3.05v67.328l-7.677 6.583l-8.323-9.514v-8.397c0-.848-.336-1.664-.938-2.262l-7.334-7.338l7.334-7.337a3.2 3.2 0 0 0 .938-2.263v-6.4c0-.848-.336-1.664-.938-2.262l-7.334-7.338l7.334-7.337a3.2 3.2 0 0 0 .938-2.263V126.42c0-1.395-.902-2.63-2.234-3.05c-16.454-5.215-26.182-22.14-22.62-39.372c2.566-12.416 12.115-22.371 24.323-25.363c10.397-2.55 21.06-.32 29.251 6.102c8.186 6.422 12.88 16.064 12.88 26.451c0 14.57-9.606 27.792-23.363 32.15m29.763-32.15c0-12.365-5.587-23.843-15.331-31.488s-22.39-10.304-34.723-7.28c-14.596 3.575-26.004 15.463-29.07 30.282v.003C44.804 102.37 55.36 121.71 73.59 128.69v7.574l-8.662 8.663a3.2 3.2 0 0 0 0 4.525l8.662 8.662v3.75l-8.662 8.663a3.2 3.2 0 0 0 0 4.525l8.662 8.662v8.275c0 .775.282 1.523.794 2.11l11.2 12.8a3.2 3.2 0 0 0 4.49.32l11.2-9.6a3.2 3.2 0 0 0 1.116-2.43v-66.534c15.187-5.863 25.6-20.935 25.6-37.466m-40 7.584c-4.41 0-8-3.587-8-8c0-4.41 3.59-8 8-8c4.413 0 8 3.59 8 8c0 4.413-3.587 8-8 8m0-22.4c-7.94 0-14.4 6.461-14.4 14.4c0 7.943 6.46 14.4 14.4 14.4c7.942 0 14.4-6.457 14.4-14.4c0-7.939-6.458-14.4-14.4-14.4" fill="#FFF"/></svg></g></g></g><g transform="translate(509.8899708036609,197.91530049478814)" class="architecture-service"><g transform="translate(40, 80)" text-anchor="middle" dominant-baseline="middle" alignment-baseline="middle" dy="1em"><g><rect style="stroke: none" class="background"/><text style="" y="-10.1"><tspan dy="1.1em" y="-0.1em" x="0" class="text-outer-tspan"><tspan font-weight="normal" class="text-inner-tspan" font-style="normal">Logs</tspan><tspan font-weight="normal" class="text-inner-tspan" font-style="normal"> Monitoring</tspan></tspan><tspan dy="1.1em" y="1em" x="0" class="text-outer-tspan"><tspan font-weight="normal" class="text-inner-tspan" font-style="normal">and</tspan><tspan font-weight="normal" class="text-inner-tspan" font-style="normal"> Alarms</tspan><tspan font-weight="normal" class="text-inner-tspan" font-style="normal"> by</tspan></tspan><tspan dy="1.1em" y="2.1em" x="0" class="text-outer-tspan"><tspan font-weight="normal" class="text-inner-tspan" font-style="normal">Cloudwatch</tspan></tspan></text></g></g><g><g><svg viewBox="0 0 256 256" height="80" width="80" xmlns="http://www.w3.org/2000/svg"><defs><linearGradient y2="0%" y1="100%" x2="100%" x1="0%" id="IconifyId19804414d46ffb8518"><stop stop-color="#B0084D" offset="0%"/><stop stop-color="#FF4F8B" offset="100%"/></linearGradient></defs><path d="M0 0h256v256H0z" fill="url(#IconifyId19804414d46ffb8518)"/><path d="M176.19 149.688c0-12.51-10.246-22.688-22.84-22.688s-22.835 10.178-22.835 22.688s10.242 22.687 22.836 22.687s22.839-10.178 22.839-22.687m6.433 0c0 16.034-13.13 29.078-29.272 29.078c-16.139 0-29.27-13.044-29.27-29.078c0-16.035 13.131-29.078 29.27-29.078c16.141 0 29.272 13.043 29.272 29.078m27.008 43.827l-22.427-20.067a41.7 41.7 0 0 1-6.231 6.915l22.395 20.064c1.91 1.713 4.883 1.553 6.61-.345c1.718-1.898 1.564-4.848-.347-6.567m-56.28-8.998c19.335 0 35.065-15.625 35.065-34.83c0-19.207-15.73-34.829-35.065-34.829c-19.333 0-35.063 15.622-35.063 34.83c0 19.204 15.73 34.83 35.063 34.83m61.407 19.842a11.15 11.15 0 0 1-8.267 3.64a11.12 11.12 0 0 1-7.427-2.825l-23.286-20.86c-6.476 4.155-14.16 6.593-22.427 6.593c-22.881 0-41.496-18.492-41.496-41.22c0-22.73 18.615-41.22 41.496-41.22c22.884 0 41.499 18.49 41.499 41.22c0 6.521-1.573 12.67-4.3 18.156l23.388 20.926c4.542 4.08 4.909 11.069.82 15.59M68.097 94.056c0 1.662.103 3.317.3 4.918a3.194 3.194 0 0 1-2.635 3.537c-7.91 2.03-20.928 8.17-20.928 26.595c0 13.913 7.723 21.591 14.205 25.586c2.213 1.386 4.831 2.124 7.594 2.153l38.791.035l-.006 6.391l-38.82-.035c-3.986-.042-7.768-1.122-10.97-3.125c-6.423-3.96-17.228-13.264-17.228-31.005c0-21.386 14.72-29.292 23.36-32.085a46 46 0 0 1-.096-2.965c0-17.472 11.93-35.593 27.75-42.147c18.503-7.7 38.106-3.882 52.43 10.206c4.44 4.365 8.09 9.666 10.892 15.798c3.764-3.096 8.402-4.806 13.292-4.806c9.608 0 20.423 7.244 22.35 23.087c8.997 2.06 28.008 9.263 28.008 33.158c0 9.542-3.01 17.421-8.952 23.422l-4.587-4.483c4.716-4.76 7.106-11.132 7.106-18.939c0-20.9-17.615-26.1-25.194-27.362a3.2 3.2 0 0 1-2.117-1.345a3.17 3.17 0 0 1-.518-2.358c-1.051-12.973-8.81-18.789-16.096-18.789c-4.597 0-8.907 2.224-11.828 6.103a3.22 3.22 0 0 1-3.05 1.246a3.22 3.22 0 0 1-2.55-2.073c-2.635-7.25-6.43-13.348-11.282-18.115c-12.413-12.21-29.388-15.52-45.423-8.851c-13.347 5.528-23.798 21.447-23.798 36.248" fill="#FFF"/></svg></g></g></g><g transform="translate(-424.3899708036609,-205.6153513396278)" class="architecture-service"><g transform="translate(40, 80)" text-anchor="middle" dominant-baseline="middle" alignment-baseline="middle" dy="1em"><g><rect style="stroke: none" class="background"/><text style="" y="-10.1"><tspan dy="1.1em" y="-0.1em" x="0" class="text-outer-tspan"><tspan font-weight="normal" class="text-inner-tspan" font-style="normal">API</tspan><tspan font-weight="normal" class="text-inner-tspan" font-style="normal"> by</tspan><tspan font-weight="normal" class="text-inner-tspan" font-style="normal"> API</tspan></tspan><tspan dy="1.1em" y="1em" x="0" class="text-outer-tspan"><tspan font-weight="normal" class="text-inner-tspan" font-style="normal">Gateway</tspan></tspan></text></g></g><g><g><svg viewBox="0 0 256 256" height="80" width="80" xmlns="http://www.w3.org/2000/svg"><defs><linearGradient y2="0%" y1="100%" x2="100%" x1="0%" id="IconifyId19804414d46ffb8519"><stop stop-color="#B0084D" offset="0%"/><stop stop-color="#FF4F8B" offset="100%"/></linearGradient></defs><path d="M0 0h256v256H0z" fill="url(#IconifyId19804414d46ffb8519)"/><path d="M109.008 178.024h9.392v-6.455h-9.392zm15.792 0h9.6v-6.455h-9.6zM86.4 46.814L44.8 67.463v128.356l41.6 14.068zm6.4 40.845v83.91h9.6v6.455h-9.6v36.349a3.24 3.24 0 0 1-1.331 2.62a3.18 3.18 0 0 1-2.887.44l-48-16.23a3.23 3.23 0 0 1-2.182-3.06V65.452c0-1.226.694-2.353 1.789-2.895l48-23.824a3.16 3.16 0 0 1 3.1.155a3.23 3.23 0 0 1 1.511 2.74v39.576h9.6v6.455zm48 90.365h9.6v-6.455h-9.6zm.208-90.365h9.392v-6.455h-9.392zm-16 0h9.392v-6.455h-9.392zm-16 0h9.392v-6.455h-9.392zM211.2 67.463l-41.6-20.649v163.073l41.6-14.068zm6.4 130.68a3.23 3.23 0 0 1-2.182 3.06l-48 16.23a3.17 3.17 0 0 1-2.887-.44a3.24 3.24 0 0 1-1.331-2.62v-36.35h-6.192v-6.454h6.192v-83.91h-6.192v-6.455h6.192V41.628c0-1.117.573-2.153 1.51-2.74a3.16 3.16 0 0 1 3.101-.155l48 23.824a3.23 3.23 0 0 1 1.789 2.895zm-80.211-89.962l-5.978-2.317l-16 41.955l5.978 2.317zm21.673 20.487a3.243 3.243 0 0 0 0-4.563l-12.8-12.91l-4.524 4.564l10.537 10.628l-10.537 10.627l4.524 4.564zm-49.324 12.91l-12.8-12.91a3.243 3.243 0 0 1 0-4.563l12.8-12.91l4.524 4.564l-10.537 10.628l10.537 10.627z" fill="#FFF"/></svg></g></g></g><g transform="translate(-222.9943441680408,-3.8440380261128126)" class="architecture-service"><g transform="translate(40, 80)" text-anchor="middle" dominant-baseline="middle" alignment-baseline="middle" dy="1em"><g><rect style="stroke: none" class="background"/><text style="" y="-10.1"><tspan dy="1.1em" y="-0.1em" x="0" class="text-outer-tspan"><tspan font-weight="normal" class="text-inner-tspan" font-style="normal">Lambdas</tspan></tspan></text></g></g><g><g><svg viewBox="0 0 256 256" height="80" width="80" xmlns="http://www.w3.org/2000/svg"><defs><linearGradient y2="0%" y1="100%" x2="100%" x1="0%" id="IconifyId19804414d46ffb85110"><stop stop-color="#C8511B" offset="0%"/><stop stop-color="#F90" offset="100%"/></linearGradient></defs><path d="M0 0h256v256H0z" fill="url(#IconifyId19804414d46ffb85110)"/><path d="M89.624 211.2H49.89l43.945-91.853l19.912 40.992zm7.079-100.63a3.22 3.22 0 0 0-2.887-1.805h-.01a3.2 3.2 0 0 0-2.886 1.82L41.913 213.022a3.203 3.203 0 0 0 2.893 4.58l46.848-.001a3.21 3.21 0 0 0 2.9-1.83l25.65-54.08a3.18 3.18 0 0 0-.016-2.762zM207.985 211.2h-39.477L105.174 78.624a3.21 3.21 0 0 0-2.897-1.824h-25.83l.03-32h50.626l63.042 132.573a3.21 3.21 0 0 0 2.897 1.827h14.943zm3.208-38.4h-16.121L132.03 40.227a3.21 3.21 0 0 0-2.9-1.827H73.273a3.206 3.206 0 0 0-3.208 3.197l-.035 38.4c0 .851.333 1.664.94 2.265c.6.602 1.414.938 2.267.938h27.017l63.337 132.576a3.2 3.2 0 0 0 2.893 1.824h44.709a3.203 3.203 0 0 0 3.207-3.2V176c0-1.766-1.434-3.2-3.207-3.2" fill="#FFF"/></svg></g></g></g><g transform="translate(-21.457697250928106,-205.6153513396278)" class="architecture-service"><g transform="translate(40, 80)" text-anchor="middle" dominant-baseline="middle" alignment-baseline="middle" dy="1em"><g><rect style="stroke: none" class="background"/><text style="" y="-10.1"><tspan dy="1.1em" y="-0.1em" x="0" class="text-outer-tspan"><tspan font-weight="normal" class="text-inner-tspan" font-style="normal">Submitted</tspan></tspan><tspan dy="1.1em" y="1em" x="0" class="text-outer-tspan"><tspan font-weight="normal" class="text-inner-tspan" font-style="normal">activities</tspan><tspan font-weight="normal" class="text-inner-tspan" font-style="normal"> store</tspan></tspan><tspan dy="1.1em" y="2.1em" x="0" class="text-outer-tspan"><tspan font-weight="normal" class="text-inner-tspan" font-style="normal">by</tspan><tspan font-weight="normal" class="text-inner-tspan" font-style="normal"> S3</tspan><tspan font-weight="normal" class="text-inner-tspan" font-style="normal"> presigned</tspan></tspan><tspan dy="1.1em" y="3.2em" x="0" class="text-outer-tspan"><tspan font-weight="normal" class="text-inner-tspan" font-style="normal">URLs</tspan></tspan></text></g></g><g><g><svg viewBox="0 0 256 256" height="80" width="80" xmlns="http://www.w3.org/2000/svg"><defs><linearGradient y2="0%" y1="100%" x2="100%" x1="0%" id="IconifyId19804414d46ffb85111"><stop stop-color="#1B660F" offset="0%"/><stop stop-color="#6CAE3E" offset="100%"/></linearGradient></defs><path d="M0 0h256v256H0z" fill="url(#IconifyId19804414d46ffb85111)"/><path d="m194.675 137.256l1.229-8.652c11.33 6.787 11.478 9.59 11.475 9.667c-.02.016-1.952 1.629-12.704-1.015m-6.218-1.728c-19.584-5.926-46.857-18.438-57.894-23.654c0-.045.013-.086.013-.131c0-4.24-3.45-7.69-7.693-7.69c-4.237 0-7.687 3.45-7.687 7.69s3.45 7.69 7.687 7.69c1.862 0 3.552-.695 4.886-1.8c12.986 6.148 40.048 18.478 59.776 24.302l-7.801 55.059q-.033.225-.032.451c0 4.848-21.463 13.754-56.532 13.754c-35.44 0-57.13-8.906-57.13-13.754q0-.22-.028-.435l-16.3-119.062c14.108 9.712 44.454 14.85 73.478 14.85c28.979 0 59.273-5.12 73.41-14.802zM48 65.528c.23-4.21 24.428-20.73 75.2-20.73c50.764 0 74.966 16.516 75.2 20.73v1.437c-2.784 9.443-34.144 19.434-75.2 19.434c-41.127 0-72.503-10.023-75.2-19.479zm156.8.07c0-11.087-31.79-27.2-81.6-27.2c-49.812 0-81.6 16.113-81.6 27.2l.3 2.414l17.754 129.676c.426 14.503 39.1 19.91 63.526 19.91c30.31 0 62.512-6.969 62.928-19.9l7.668-54.07c4.265 1.02 7.776 1.542 10.595 1.542c3.785 0 6.345-.925 7.897-2.774c1.274-1.517 1.76-3.354 1.396-5.31c-.83-4.428-6.087-9.202-16.794-15.311l7.603-53.639z" fill="#FFF"/></svg></g></g></g><g transform="translate(-222.9943441680408,-677.673215171727)" class="architecture-service"><g transform="translate(40, 80)" text-anchor="middle" dominant-baseline="middle" alignment-baseline="middle" dy="1em"><g><rect style="stroke: none" class="background"/><text style="" y="-10.1"><tspan dy="1.1em" y="-0.1em" x="0" class="text-outer-tspan"><tspan font-weight="normal" class="text-inner-tspan" font-style="normal">React</tspan><tspan font-weight="normal" class="text-inner-tspan" font-style="normal"> Frontend</tspan></tspan></text></g></g><g><g><svg viewBox="0 0 256 228" height="80" width="80" xmlns="http://www.w3.org/2000/svg"><path d="M210.483 73.824a172 172 0 0 0-8.24-2.597c.465-1.9.893-3.777 1.273-5.621c6.238-30.281 2.16-54.676-11.769-62.708c-13.355-7.7-35.196.329-57.254 19.526a171 171 0 0 0-6.375 5.848a156 156 0 0 0-4.241-3.917C100.759 3.829 77.587-4.822 63.673 3.233C50.33 10.957 46.379 33.89 51.995 62.588a171 171 0 0 0 1.892 8.48c-3.28.932-6.445 1.924-9.474 2.98C17.309 83.498 0 98.307 0 113.668c0 15.865 18.582 31.778 46.812 41.427a146 146 0 0 0 6.921 2.165a168 168 0 0 0-2.01 9.138c-5.354 28.2-1.173 50.591 12.134 58.266c13.744 7.926 36.812-.22 59.273-19.855a146 146 0 0 0 5.342-4.923a168 168 0 0 0 6.92 6.314c21.758 18.722 43.246 26.282 56.54 18.586c13.731-7.949 18.194-32.003 12.4-61.268a145 145 0 0 0-1.535-6.842c1.62-.48 3.21-.974 4.76-1.488c29.348-9.723 48.443-25.443 48.443-41.52c0-15.417-17.868-30.326-45.517-39.844m-6.365 70.984q-2.102.694-4.3 1.345c-3.24-10.257-7.612-21.163-12.963-32.432c5.106-11 9.31-21.767 12.459-31.957c2.619.758 5.16 1.557 7.61 2.4c23.69 8.156 38.14 20.213 38.14 29.504c0 9.896-15.606 22.743-40.946 31.14m-10.514 20.834c2.562 12.94 2.927 24.64 1.23 33.787c-1.524 8.219-4.59 13.698-8.382 15.893c-8.067 4.67-25.32-1.4-43.927-17.412a157 157 0 0 1-6.437-5.87c7.214-7.889 14.423-17.06 21.459-27.246c12.376-1.098 24.068-2.894 34.671-5.345q.785 3.162 1.386 6.193M87.276 214.515c-7.882 2.783-14.16 2.863-17.955.675c-8.075-4.657-11.432-22.636-6.853-46.752a157 157 0 0 1 1.869-8.499c10.486 2.32 22.093 3.988 34.498 4.994c7.084 9.967 14.501 19.128 21.976 27.15a135 135 0 0 1-4.877 4.492c-9.933 8.682-19.886 14.842-28.658 17.94M50.35 144.747c-12.483-4.267-22.792-9.812-29.858-15.863c-6.35-5.437-9.555-10.836-9.555-15.216c0-9.322 13.897-21.212 37.076-29.293c2.813-.98 5.757-1.905 8.812-2.773c3.204 10.42 7.406 21.315 12.477 32.332c-5.137 11.18-9.399 22.249-12.634 32.792a135 135 0 0 1-6.318-1.979m12.378-84.26c-4.811-24.587-1.616-43.134 6.425-47.789c8.564-4.958 27.502 2.111 47.463 19.835a144 144 0 0 1 3.841 3.545c-7.438 7.987-14.787 17.08-21.808 26.988c-12.04 1.116-23.565 2.908-34.161 5.309a160 160 0 0 1-1.76-7.887m110.427 27.268a348 348 0 0 0-7.785-12.803c8.168 1.033 15.994 2.404 23.343 4.08c-2.206 7.072-4.956 14.465-8.193 22.045a381 381 0 0 0-7.365-13.322m-45.032-43.861c5.044 5.465 10.096 11.566 15.065 18.186a322 322 0 0 0-30.257-.006c4.974-6.559 10.069-12.652 15.192-18.18M82.802 87.83a323 323 0 0 0-7.227 13.238c-3.184-7.553-5.909-14.98-8.134-22.152c7.304-1.634 15.093-2.97 23.209-3.984a322 322 0 0 0-7.848 12.897m8.081 65.352c-8.385-.936-16.291-2.203-23.593-3.793c2.26-7.3 5.045-14.885 8.298-22.6a321 321 0 0 0 7.257 13.246c2.594 4.48 5.28 8.868 8.038 13.147m37.542 31.03c-5.184-5.592-10.354-11.779-15.403-18.433c4.902.192 9.899.29 14.978.29c5.218 0 10.376-.117 15.453-.343c-4.985 6.774-10.018 12.97-15.028 18.486m52.198-57.817c3.422 7.8 6.306 15.345 8.596 22.52c-7.422 1.694-15.436 3.058-23.88 4.071a382 382 0 0 0 7.859-13.026a347 347 0 0 0 7.425-13.565m-16.898 8.101a359 359 0 0 1-12.281 19.815a329 329 0 0 1-23.444.823c-7.967 0-15.716-.248-23.178-.732a310 310 0 0 1-12.513-19.846h.001a307 307 0 0 1-10.923-20.627a310 310 0 0 1 10.89-20.637l-.001.001a307 307 0 0 1 12.413-19.761c7.613-.576 15.42-.876 23.31-.876H128c7.926 0 15.743.303 23.354.883a329 329 0 0 1 12.335 19.695a359 359 0 0 1 11.036 20.54a330 330 0 0 1-11 20.722m22.56-122.124c8.572 4.944 11.906 24.881 6.52 51.026q-.518 2.504-1.15 5.09c-10.622-2.452-22.155-4.275-34.23-5.408c-7.034-10.017-14.323-19.124-21.64-27.008a161 161 0 0 1 5.888-5.4c18.9-16.447 36.564-22.941 44.612-18.3M128 90.808c12.625 0 22.86 10.235 22.86 22.86s-10.235 22.86-22.86 22.86s-22.86-10.235-22.86-22.86s10.235-22.86 22.86-22.86" fill="#00D8FF"/></svg></g></g></g><g transform="translate(-21.457697250928106,-677.673215171727)" class="architecture-service"><g transform="translate(40, 80)" text-anchor="middle" dominant-baseline="middle" alignment-baseline="middle" dy="1em"><g><rect style="stroke: none" class="background"/><text style="" y="-10.1"><tspan dy="1.1em" y="-0.1em" x="0" class="text-outer-tspan"><tspan font-weight="normal" class="text-inner-tspan" font-style="normal">CDN</tspan></tspan></text></g></g><g><g><svg viewBox="0 0 256 256" height="80" width="80" xmlns="http://www.w3.org/2000/svg"><defs><linearGradient y2="0%" y1="100%" x2="100%" x1="0%" id="IconifyId19804414d46ffb85112"><stop stop-color="#4D27A8" offset="0%"/><stop stop-color="#A166FF" offset="100%"/></linearGradient></defs><path d="M0 0h256v256H0z" fill="url(#IconifyId19804414d46ffb85112)"/><path d="M176.39 166.794c0-5.293-4.307-9.6-9.6-9.6s-9.6 4.307-9.6 9.6s4.308 9.6 9.6 9.6c5.293 0 9.6-4.308 9.6-9.6m6.4 0c0 8.822-7.177 16-16 16c-8.822 0-16-7.178-16-16c0-8.823 7.178-16 16-16c8.823 0 16 7.177 16 16m-85.536-46.18c0-5.292-4.307-9.6-9.6-9.6c-5.296 0-9.6 4.308-9.6 9.6c0 5.293 4.304 9.6 9.6 9.6c5.293 0 9.6-4.307 9.6-9.6m6.4 0c0 8.823-7.18 16-16 16c-8.822 0-16-7.177-16-16c0-8.822 7.178-16 16-16c8.82 0 16 7.178 16 16m23.482-50.192c0 5.293 4.307 9.6 9.6 9.6c5.296 0 9.6-4.307 9.6-9.6c0-5.296-4.304-9.6-9.6-9.6c-5.293 0-9.6 4.304-9.6 9.6m-6.4 0c0-8.822 7.18-16 16-16c8.822 0 16 7.178 16 16c0 8.823-7.178 16-16 16c-8.82 0-16-7.177-16-16M211.2 128c0-29.674-15.91-57.126-41.562-71.971c-4.598.928-9.046 2.198-14.595 4.205l-2.176-6.02a131 131 0 0 1 7.984-2.61A83 83 0 0 0 128 44.8c-5.405 0-10.723.56-15.92 1.574c3.763 2.202 7.1 4.397 10.342 6.855l-3.868 5.097c-4.57-3.462-9.306-6.396-15.524-9.654c-31.42 9.882-54.05 37.594-57.644 70.138c6.588-1.335 12.915-2.061 19.939-2.234l.157 6.397c-7.36.182-13.684.963-20.596 2.483c-.028.848-.086 1.706-.086 2.544c0 27.706 13.706 53.235 36.246 68.63c-4.01-11.939-6.006-23.222-6.006-34.243c0-6.285 1.082-11.446 2.224-16.909c.266-1.264.534-2.55.797-3.884l6.281 1.238c-.268 1.357-.544 2.672-.812 3.962c-1.12 5.35-2.09 9.97-2.09 15.593c0 12.506 2.746 25.437 8.333 39.479c11.9 6.179 24.752 9.334 38.227 9.334c8.82 0 17.427-1.408 25.638-4.115c3.223-6.359 5.613-12.359 7.61-19.248l6.147 1.782a114 114 0 0 1-5.126 14.147c5.165-2.323 10.051-5.196 14.637-8.55c-1.104-2.707-2.288-5.398-3.597-8.02l5.725-2.863c1.113 2.227 2.134 4.505 3.11 6.797C200.656 175.28 211.2 152.512 211.2 128m6.4 0c0 27.926-12.691 53.757-34.813 70.877c-5.478 4.256-11.42 7.789-17.702 10.633c-2.666 1.21-5.38 2.33-8.17 3.27c-9.216 3.198-18.953 4.82-28.915 4.82c-14.72 0-29.338-3.667-42.278-10.605C56.534 191.38 38.4 161.11 38.4 128c0-2.195.058-3.866.189-5.411c2.179-37.389 27.83-69.75 63.814-80.458C110.598 39.658 119.216 38.4 128 38.4c15.386 0 30.525 3.962 43.789 11.453C200.042 65.68 217.6 95.629 217.6 128m-98.195-46.518l-4.205-4.823c-7.174 6.26-12.755 12.906-19.274 22.944l5.37 3.485c6.17-9.507 11.418-15.766 18.109-21.606m-9.725 41.484l-2.08 6.052c14.698 5.046 27.52 13.097 40.349 25.337l4.419-4.63c-13.523-12.9-27.088-21.402-42.688-26.759m42.787-37.628c12.007 18.31 18.768 38.41 20.093 59.744l-6.387.396c-1.258-20.21-7.667-39.264-19.053-56.63z" fill="#FFF"/></svg></g></g></g><g transform="translate(182.95308958548463,-677.673215171727)" class="architecture-service"><g transform="translate(40, 80)" text-anchor="middle" dominant-baseline="middle" alignment-baseline="middle" dy="1em"><g><rect style="stroke: none" class="background"/><text style="" y="-10.1"><tspan dy="1.1em" y="-0.1em" x="0" class="text-outer-tspan"><tspan font-weight="normal" class="text-inner-tspan" font-style="normal">Frontend</tspan></tspan><tspan dy="1.1em" y="1em" x="0" class="text-outer-tspan"><tspan font-weight="normal" class="text-inner-tspan" font-style="normal">sources</tspan></tspan></text></g></g><g><g><svg viewBox="0 0 256 256" height="80" width="80" xmlns="http://www.w3.org/2000/svg"><defs><linearGradient y2="0%" y1="100%" x2="100%" x1="0%" id="IconifyId19804414d46ffb85113"><stop stop-color="#1B660F" offset="0%"/><stop stop-color="#6CAE3E" offset="100%"/></linearGradient></defs><path d="M0 0h256v256H0z" fill="url(#IconifyId19804414d46ffb85113)"/><path d="m194.675 137.256l1.229-8.652c11.33 6.787 11.478 9.59 11.475 9.667c-.02.016-1.952 1.629-12.704-1.015m-6.218-1.728c-19.584-5.926-46.857-18.438-57.894-23.654c0-.045.013-.086.013-.131c0-4.24-3.45-7.69-7.693-7.69c-4.237 0-7.687 3.45-7.687 7.69s3.45 7.69 7.687 7.69c1.862 0 3.552-.695 4.886-1.8c12.986 6.148 40.048 18.478 59.776 24.302l-7.801 55.059q-.033.225-.032.451c0 4.848-21.463 13.754-56.532 13.754c-35.44 0-57.13-8.906-57.13-13.754q0-.22-.028-.435l-16.3-119.062c14.108 9.712 44.454 14.85 73.478 14.85c28.979 0 59.273-5.12 73.41-14.802zM48 65.528c.23-4.21 24.428-20.73 75.2-20.73c50.764 0 74.966 16.516 75.2 20.73v1.437c-2.784 9.443-34.144 19.434-75.2 19.434c-41.127 0-72.503-10.023-75.2-19.479zm156.8.07c0-11.087-31.79-27.2-81.6-27.2c-49.812 0-81.6 16.113-81.6 27.2l.3 2.414l17.754 129.676c.426 14.503 39.1 19.91 63.526 19.91c30.31 0 62.512-6.969 62.928-19.9l7.668-54.07c4.265 1.02 7.776 1.542 10.595 1.542c3.785 0 6.345-.925 7.897-2.774c1.274-1.517 1.76-3.354 1.396-5.31c-.83-4.428-6.087-9.202-16.794-15.311l7.603-53.639z" fill="#FFF"/></svg></g></g></g><g transform="translate(-424.3899708036609,711.673215171727)" class="architecture-junction"><g><rect height="80" width="80" fill-opacity="0" id="node-ai-matcher-to-queue"/></g></g><g transform="translate(306.89427453309435,-3.8440380261128126)" class="architecture-junction"><g><rect height="80" width="80" fill-opacity="0" id="node-support1"/></g></g><g transform="translate(509.8899708036609,-3.8440380261128126)" class="architecture-junction"><g><rect height="80" width="80" fill-opacity="0" id="node-support2"/></g></g><g transform="translate(-222.9943441680408,-408.0252211131548)" class="architecture-junction"><g><rect height="80" width="80" fill-opacity="0" id="node-frontend-backend"/></g></g><g transform="translate(-424.3899708036609,-408.0252211131548)" class="architecture-junction"><g><rect height="80" width="80" fill-opacity="0" id="node-frontend-backend-left"/></g></g><g transform="translate(-21.457697250928106,-408.0252211131548)" class="architecture-junction"><g><rect height="80" width="80" fill-opacity="0" id="node-frontend-backend-right"/></g></g><g transform="translate(-222.9943441680408,-205.6153513396278)" class="architecture-junction"><g><rect height="80" width="80" fill-opacity="0" id="node-public-lambdas"/></g></g></g><g class="architecture-groups"><rect class="node-bkg" height="584.2698920190032" width="599.4322735527328" y="266.9033231527238" x="-466.8899708036609"/><g><g transform="translate(-465.8899708036609, 267.9033231527238)"><g><svg viewBox="0 0 80 80" height="30" width="30" xmlns="http://www.w3.org/2000/svg"><g><rect style="fill: #087ebf; stroke-width: 0px;" height="80" width="80"/><path style="fill: none; stroke: #fff; stroke-miterlimit: 10; stroke-width: 2px;" d="m20,57.86c0,3.94,8.95,7.14,20,7.14s20-3.2,20-7.14" data-name="4" id="IconifyId19804414d46ffb85114"/><path style="fill: none; stroke: #fff; stroke-miterlimit: 10; stroke-width: 2px;" d="m20,45.95c0,3.94,8.95,7.14,20,7.14s20-3.2,20-7.14" data-name="3" id="IconifyId19804414d46ffb85115"/><path style="fill: none; stroke: #fff; stroke-miterlimit: 10; stroke-width: 2px;" d="m20,34.05c0,3.94,8.95,7.14,20,7.14s20-3.2,20-7.14" data-name="2" id="IconifyId19804414d46ffb85116"/><ellipse style="fill: none; stroke: #fff; stroke-miterlimit: 10; stroke-width: 2px;" ry="7.14" rx="20" cy="22.14" cx="40" data-name="1" id="IconifyId19804414d46ffb85117"/><line style="fill: none; stroke: #fff; stroke-miterlimit: 10; stroke-width: 2px;" y2="22.14" x2="20" y1="57.86" x1="20"/><line style="fill: none; stroke: #fff; stroke-miterlimit: 10; stroke-width: 2px;" y2="22.14" x2="60" y1="57.86" x1="60"/></g></svg></g></g><g transform="translate(-432.8899708036609, 273.9033231527238)" text-anchor="start" dominant-baseline="start" alignment-baseline="middle" dy="1em"><g><rect style="stroke: none" class="background"/><text style="" y="-10.1"><tspan dy="1.1em" y="-0.1em" x="0" class="text-outer-tspan"><tspan font-weight="normal" class="text-inner-tspan" font-style="normal">Activities</tspan><tspan font-weight="normal" class="text-inner-tspan" font-style="normal"> ingestion</tspan></tspan></text></g></g></g><rect class="node-bkg" height="585.530651834416" width="550.4956962705664" y="-248.1153513396278" x="200.3942745330944"/><g><g transform="translate(201.3942745330944, -247.1153513396278)"><g><svg viewBox="0 0 80 80" height="30" width="30" xmlns="http://www.w3.org/2000/svg"><g><rect style="fill: #087ebf; stroke-width: 0px;" height="80" width="80"/><path style="fill: none; stroke: #fff; stroke-miterlimit: 10; stroke-width: 2px;" d="m65,47.5c0,2.76-2.24,5-5,5H20c-2.76,0-5-2.24-5-5,0-1.87,1.03-3.51,2.56-4.36-.04-.21-.06-.42-.06-.64,0-2.6,2.48-4.74,5.65-4.97,1.65-4.51,6.34-7.76,11.85-7.76.86,0,1.69.08,2.5.23,2.09-1.57,4.69-2.5,7.5-2.5,6.1,0,11.19,4.38,12.28,10.17,2.14.56,3.72,2.51,3.72,4.83,0,.03,0,.07-.01.1,2.29.46,4.01,2.48,4.01,4.9Z"/></g></svg></g></g><g transform="translate(234.3942745330944, -241.1153513396278)" text-anchor="start" dominant-baseline="start" alignment-baseline="middle" dy="1em"><g><rect style="stroke: none" class="background"/><text style="" y="-10.1"><tspan dy="1.1em" y="-0.1em" x="0" class="text-outer-tspan"><tspan font-weight="normal" class="text-inner-tspan" font-style="normal">Backend</tspan><tspan font-weight="normal" class="text-inner-tspan" font-style="normal"> support</tspan><tspan font-weight="normal" class="text-inner-tspan" font-style="normal"> systems</tspan></tspan></text></g></g></g><rect class="node-bkg" height="586.181183087042" width="735.4322735527328" y="-450.52522111315477" x="-499.88997080366084"/><g><g transform="translate(-498.88997080366084, -449.52522111315477)"><g><svg viewBox="0 0 80 80" height="30" width="30" xmlns="http://www.w3.org/2000/svg"><g><rect style="fill: #087ebf; stroke-width: 0px;" height="80" width="80"/><rect style="fill: none; stroke: #fff; stroke-miterlimit: 10; stroke-width: 2px;" ry="2" rx="2" height="45" width="45" y="17.5" x="17.5"/><line style="fill: none; stroke: #fff; stroke-miterlimit: 10; stroke-width: 2px;" y2="32.5" x2="62.5" y1="32.5" x1="17.5"/><line style="fill: none; stroke: #fff; stroke-miterlimit: 10; stroke-width: 2px;" y2="47.5" x2="62.5" y1="47.5" x1="17.5"/><g><path style="fill: #fff; stroke-width: 0px;" d="m56.25,25c0,.27-.45.5-1,.5h-10.5c-.55,0-1-.23-1-.5s.45-.5,1-.5h10.5c.55,0,1,.23,1,.5Z"/><path style="fill: none; stroke: #fff; stroke-miterlimit: 10;" d="m56.25,25c0,.27-.45.5-1,.5h-10.5c-.55,0-1-.23-1-.5s.45-.5,1-.5h10.5c.55,0,1,.23,1,.5Z"/></g><g><path style="fill: #fff; stroke-width: 0px;" d="m56.25,40c0,.27-.45.5-1,.5h-10.5c-.55,0-1-.23-1-.5s.45-.5,1-.5h10.5c.55,0,1,.23,1,.5Z"/><path style="fill: none; stroke: #fff; stroke-miterlimit: 10;" d="m56.25,40c0,.27-.45.5-1,.5h-10.5c-.55,0-1-.23-1-.5s.45-.5,1-.5h10.5c.55,0,1,.23,1,.5Z"/></g><g><path style="fill: #fff; stroke-width: 0px;" d="m56.25,55c0,.27-.45.5-1,.5h-10.5c-.55,0-1-.23-1-.5s.45-.5,1-.5h10.5c.55,0,1,.23,1,.5Z"/><path style="fill: none; stroke: #fff; stroke-miterlimit: 10;" d="m56.25,55c0,.27-.45.5-1,.5h-10.5c-.55,0-1-.23-1-.5s.45-.5,1-.5h10.5c.55,0,1,.23,1,.5Z"/></g><g><circle style="fill: #fff; stroke: #fff; stroke-miterlimit: 10;" r=".75" cy="25" cx="32.5"/><circle style="fill: #fff; stroke: #fff; stroke-miterlimit: 10;" r=".75" cy="25" cx="27.5"/><circle style="fill: #fff; stroke: #fff; stroke-miterlimit: 10;" r=".75" cy="25" cx="22.5"/></g><g><circle style="fill: #fff; stroke: #fff; stroke-miterlimit: 10;" r=".75" cy="40" cx="32.5"/><circle style="fill: #fff; stroke: #fff; stroke-miterlimit: 10;" r=".75" cy="40" cx="27.5"/><circle style="fill: #fff; stroke: #fff; stroke-miterlimit: 10;" r=".75" cy="40" cx="22.5"/></g><g><circle style="fill: #fff; stroke: #fff; stroke-miterlimit: 10;" r=".75" cy="55" cx="32.5"/><circle style="fill: #fff; stroke: #fff; stroke-miterlimit: 10;" r=".75" cy="55" cx="27.5"/><circle style="fill: #fff; stroke: #fff; stroke-miterlimit: 10;" r=".75" cy="55" cx="22.5"/></g></g></svg></g></g><g transform="translate(-465.88997080366084, -443.52522111315477)" text-anchor="start" dominant-baseline="start" alignment-baseline="middle" dy="1em"><g><rect style="stroke: none" class="background"/><text style="" y="-10.1"><tspan dy="1.1em" y="-0.1em" x="0" class="text-outer-tspan"><tspan font-weight="normal" class="text-inner-tspan" font-style="normal">Backend</tspan></tspan></text></g></g></g><rect class="node-bkg" height="182" width="611.4474337535255" y="-720.173215171727" x="-281.9943441680408"/><g><g transform="translate(-280.9943441680408, -719.173215171727)"><g><svg viewBox="0 0 80 80" height="30" width="30" xmlns="http://www.w3.org/2000/svg"><g><rect style="fill: #087ebf; stroke-width: 0px;" height="80" width="80"/><circle style="fill: none; stroke: #fff; stroke-miterlimit: 10; stroke-width: 2px;" r="22.5" cy="40" cx="40"/><line style="fill: none; stroke: #fff; stroke-miterlimit: 10; stroke-width: 2px;" y2="62.5" x2="40" y1="17.5" x1="40"/><line style="fill: none; stroke: #fff; stroke-miterlimit: 10; stroke-width: 2px;" y2="40" x2="62.5" y1="40" x1="17.5"/><path style="fill: none; stroke: #fff; stroke-miterlimit: 10; stroke-width: 2px;" d="m39.99,17.51c-15.28,11.1-15.28,33.88,0,44.98"/><path style="fill: none; stroke: #fff; stroke-miterlimit: 10; stroke-width: 2px;" d="m40.01,17.51c15.28,11.1,15.28,33.88,0,44.98"/><line style="fill: none; stroke: #fff; stroke-miterlimit: 10; stroke-width: 2px;" y2="30.1" x2="60.25" y1="30.1" x1="19.75"/><line style="fill: none; stroke: #fff; stroke-miterlimit: 10; stroke-width: 2px;" y2="49.9" x2="60.25" y1="49.9" x1="19.75"/></g></svg></g></g><g transform="translate(-247.9943441680408, -713.173215171727)" text-anchor="start" dominant-baseline="start" alignment-baseline="middle" dy="1em"><g><rect style="stroke: none" class="background"/><text style="" y="-10.1"><tspan dy="1.1em" y="-0.1em" x="0" class="text-outer-tspan"><tspan font-weight="normal" class="text-inner-tspan" font-style="normal">Frontend</tspan></tspan></text></g></g></g></g></svg>