<svg aria-roledescription="architecture" role="graphics-document document" viewBox="-408.6074523925781 -175.68386840820312 791.2149047851562 482.3677062988281" style="max-width: 791.215px; background-color: white;" xmlns:xlink="http://www.w3.org/1999/xlink" xmlns="http://www.w3.org/2000/svg" width="100%" id="my-svg"><style>#my-svg{font-family:"trebuchet ms",verdana,arial,sans-serif;font-size:16px;fill:#333;}@keyframes edge-animation-frame{from{stroke-dashoffset:0;}}@keyframes dash{to{stroke-dashoffset:0;}}#my-svg .edge-animation-slow{stroke-dasharray:9,5!important;stroke-dashoffset:900;animation:dash 50s linear infinite;stroke-linecap:round;}#my-svg .edge-animation-fast{stroke-dasharray:9,5!important;stroke-dashoffset:900;animation:dash 20s linear infinite;stroke-linecap:round;}#my-svg .error-icon{fill:#552222;}#my-svg .error-text{fill:#552222;stroke:#552222;}#my-svg .edge-thickness-normal{stroke-width:1px;}#my-svg .edge-thickness-thick{stroke-width:3.5px;}#my-svg .edge-pattern-solid{stroke-dasharray:0;}#my-svg .edge-thickness-invisible{stroke-width:0;fill:none;}#my-svg .edge-pattern-dashed{stroke-dasharray:3;}#my-svg .edge-pattern-dotted{stroke-dasharray:2;}#my-svg .marker{fill:#333333;stroke:#333333;}#my-svg .marker.cross{stroke:#333333;}#my-svg svg{font-family:"trebuchet ms",verdana,arial,sans-serif;font-size:16px;}#my-svg p{margin:0;}#my-svg .edge{stroke-width:3;stroke:#333333;fill:none;}#my-svg .arrow{fill:#333333;}#my-svg .node-bkg{fill:none;stroke:hsl(240, 60%, 86.2745098039%);stroke-width:2px;stroke-dasharray:8;}#my-svg .node-icon-text{display:flex;align-items:center;}#my-svg .node-icon-text&gt;div{color:#fff;margin:1px;height:fit-content;text-align:center;overflow:hidden;display:-webkit-box;-webkit-box-orient:vertical;}#my-svg :root{--mermaid-font-family:"trebuchet ms",verdana,arial,sans-serif;}</style><g/><g class="architecture-edges"><g><path class="edge" d="M -233.10746328265236,6.497296398602572 L -233.10746328265236,66.8405792791951 L-233.10746328265236,127.18386215978762"/></g><g><path class="edge" d="M 220.10746328265222,-53.18386215978768 L 159.19388776516985,-53.18386215978768 L98.28031224768748,-53.18386215978768"/></g><g><path class="edge" d="M 58.28031224768748,107.73877139799708 L 58.28031224768748,47.2774546191047 L58.28031224768748,-13.18386215978768"/></g><g><path class="edge" d="M 260.10746328265225,107.73877139799708 L 260.10746328265225,47.2774546191047 L260.10746328265225,-13.18386215978768"/></g></g><g class="architecture-services"><g transform="translate(-273.10746328265236,-73.50270360139743)" class="architecture-service"><g transform="translate(40, 80)" text-anchor="middle" dominant-baseline="middle" alignment-baseline="middle" dy="1em"><g><rect style="stroke: none" class="background"/><text style="" y="-10.1"><tspan dy="1.1em" y="-0.1em" x="0" class="text-outer-tspan"><tspan font-weight="normal" class="text-inner-tspan" font-style="normal">React</tspan><tspan font-weight="normal" class="text-inner-tspan" font-style="normal"> Frontend</tspan></tspan></text></g></g><g><g><svg viewBox="0 0 80 80" height="80" width="80" xmlns="http://www.w3.org/2000/svg"><g><rect style="fill: #087ebf; stroke-width: 0px;" height="80" width="80"/><circle style="fill: none; stroke: #fff; stroke-miterlimit: 10; stroke-width: 2px;" r="22.5" cy="40" cx="40"/><line style="fill: none; stroke: #fff; stroke-miterlimit: 10; stroke-width: 2px;" y2="62.5" x2="40" y1="17.5" x1="40"/><line style="fill: none; stroke: #fff; stroke-miterlimit: 10; stroke-width: 2px;" y2="40" x2="62.5" y1="40" x1="17.5"/><path style="fill: none; stroke: #fff; stroke-miterlimit: 10; stroke-width: 2px;" d="m39.99,17.51c-15.28,11.1-15.28,33.88,0,44.98"/><path style="fill: none; stroke: #fff; stroke-miterlimit: 10; stroke-width: 2px;" d="m40.01,17.51c15.28,11.1,15.28,33.88,0,44.98"/><line style="fill: none; stroke: #fff; stroke-miterlimit: 10; stroke-width: 2px;" y2="30.1" x2="60.25" y1="30.1" x1="19.75"/><line style="fill: none; stroke: #fff; stroke-miterlimit: 10; stroke-width: 2px;" y2="49.9" x2="60.25" y1="49.9" x1="19.75"/></g></svg></g></g></g><g transform="translate(-273.10746328265236,127.18386215978762)" class="architecture-service"><g transform="translate(40, 80)" text-anchor="middle" dominant-baseline="middle" alignment-baseline="middle" dy="1em"><g><rect style="stroke: none" class="background"/><text style="" y="-10.1"><tspan dy="1.1em" y="-0.1em" x="0" class="text-outer-tspan"><tspan font-weight="normal" class="text-inner-tspan" font-style="normal">Content</tspan></tspan><tspan dy="1.1em" y="1em" x="0" class="text-outer-tspan"><tspan font-weight="normal" class="text-inner-tspan" font-style="normal">Delivery</tspan></tspan><tspan dy="1.1em" y="2.1em" x="0" class="text-outer-tspan"><tspan font-weight="normal" class="text-inner-tspan" font-style="normal">Network</tspan></tspan></text></g></g><g><g><svg viewBox="0 0 256 256" height="80" width="80" xmlns="http://www.w3.org/2000/svg"><defs><linearGradient y2="0%" y1="100%" x2="100%" x1="0%" id="IconifyId197fe3c85b3de78750"><stop stop-color="#4D27A8" offset="0%"/><stop stop-color="#A166FF" offset="100%"/></linearGradient></defs><path d="M0 0h256v256H0z" fill="url(#IconifyId197fe3c85b3de78750)"/><path d="M176.39 166.794c0-5.293-4.307-9.6-9.6-9.6s-9.6 4.307-9.6 9.6s4.308 9.6 9.6 9.6c5.293 0 9.6-4.308 9.6-9.6m6.4 0c0 8.822-7.177 16-16 16c-8.822 0-16-7.178-16-16c0-8.823 7.178-16 16-16c8.823 0 16 7.177 16 16m-85.536-46.18c0-5.292-4.307-9.6-9.6-9.6c-5.296 0-9.6 4.308-9.6 9.6c0 5.293 4.304 9.6 9.6 9.6c5.293 0 9.6-4.307 9.6-9.6m6.4 0c0 8.823-7.18 16-16 16c-8.822 0-16-7.177-16-16c0-8.822 7.178-16 16-16c8.82 0 16 7.178 16 16m23.482-50.192c0 5.293 4.307 9.6 9.6 9.6c5.296 0 9.6-4.307 9.6-9.6c0-5.296-4.304-9.6-9.6-9.6c-5.293 0-9.6 4.304-9.6 9.6m-6.4 0c0-8.822 7.18-16 16-16c8.822 0 16 7.178 16 16c0 8.823-7.178 16-16 16c-8.82 0-16-7.177-16-16M211.2 128c0-29.674-15.91-57.126-41.562-71.971c-4.598.928-9.046 2.198-14.595 4.205l-2.176-6.02a131 131 0 0 1 7.984-2.61A83 83 0 0 0 128 44.8c-5.405 0-10.723.56-15.92 1.574c3.763 2.202 7.1 4.397 10.342 6.855l-3.868 5.097c-4.57-3.462-9.306-6.396-15.524-9.654c-31.42 9.882-54.05 37.594-57.644 70.138c6.588-1.335 12.915-2.061 19.939-2.234l.157 6.397c-7.36.182-13.684.963-20.596 2.483c-.028.848-.086 1.706-.086 2.544c0 27.706 13.706 53.235 36.246 68.63c-4.01-11.939-6.006-23.222-6.006-34.243c0-6.285 1.082-11.446 2.224-16.909c.266-1.264.534-2.55.797-3.884l6.281 1.238c-.268 1.357-.544 2.672-.812 3.962c-1.12 5.35-2.09 9.97-2.09 15.593c0 12.506 2.746 25.437 8.333 39.479c11.9 6.179 24.752 9.334 38.227 9.334c8.82 0 17.427-1.408 25.638-4.115c3.223-6.359 5.613-12.359 7.61-19.248l6.147 1.782a114 114 0 0 1-5.126 14.147c5.165-2.323 10.051-5.196 14.637-8.55c-1.104-2.707-2.288-5.398-3.597-8.02l5.725-2.863c1.113 2.227 2.134 4.505 3.11 6.797C200.656 175.28 211.2 152.512 211.2 128m6.4 0c0 27.926-12.691 53.757-34.813 70.877c-5.478 4.256-11.42 7.789-17.702 10.633c-2.666 1.21-5.38 2.33-8.17 3.27c-9.216 3.198-18.953 4.82-28.915 4.82c-14.72 0-29.338-3.667-42.278-10.605C56.534 191.38 38.4 161.11 38.4 128c0-2.195.058-3.866.189-5.411c2.179-37.389 27.83-69.75 63.814-80.458C110.598 39.658 119.216 38.4 128 38.4c15.386 0 30.525 3.962 43.789 11.453C200.042 65.68 217.6 95.629 217.6 128m-98.195-46.518l-4.205-4.823c-7.174 6.26-12.755 12.906-19.274 22.944l5.37 3.485c6.17-9.507 11.418-15.766 18.109-21.606m-9.725 41.484l-2.08 6.052c14.698 5.046 27.52 13.097 40.349 25.337l4.419-4.63c-13.523-12.9-27.088-21.402-42.688-26.759m42.787-37.628c12.007 18.31 18.768 38.41 20.093 59.744l-6.387.396c-1.258-20.21-7.667-39.264-19.053-56.63z" fill="#FFF"/></svg></g></g></g><g transform="translate(220.10746328265222,-93.18386215978768)" class="architecture-service"><g transform="translate(40, 80)" text-anchor="middle" dominant-baseline="middle" alignment-baseline="middle" dy="1em"><g><rect style="stroke: none" class="background"/><text style="" y="-10.1"><tspan dy="1.1em" y="-0.1em" x="0" class="text-outer-tspan"><tspan font-weight="normal" class="text-inner-tspan" font-style="normal">Database</tspan></tspan></text></g></g><g><g><svg viewBox="0 0 80 80" height="80" width="80" xmlns="http://www.w3.org/2000/svg"><g><rect style="fill: #087ebf; stroke-width: 0px;" height="80" width="80"/><path style="fill: none; stroke: #fff; stroke-miterlimit: 10; stroke-width: 2px;" d="m20,57.86c0,3.94,8.95,7.14,20,7.14s20-3.2,20-7.14" data-name="4" id="IconifyId197fe3c85b3de78751"/><path style="fill: none; stroke: #fff; stroke-miterlimit: 10; stroke-width: 2px;" d="m20,45.95c0,3.94,8.95,7.14,20,7.14s20-3.2,20-7.14" data-name="3" id="IconifyId197fe3c85b3de78752"/><path style="fill: none; stroke: #fff; stroke-miterlimit: 10; stroke-width: 2px;" d="m20,34.05c0,3.94,8.95,7.14,20,7.14s20-3.2,20-7.14" data-name="2" id="IconifyId197fe3c85b3de78753"/><ellipse style="fill: none; stroke: #fff; stroke-miterlimit: 10; stroke-width: 2px;" ry="7.14" rx="20" cy="22.14" cx="40" data-name="1" id="IconifyId197fe3c85b3de78754"/><line style="fill: none; stroke: #fff; stroke-miterlimit: 10; stroke-width: 2px;" y2="22.14" x2="20" y1="57.86" x1="20"/><line style="fill: none; stroke: #fff; stroke-miterlimit: 10; stroke-width: 2px;" y2="22.14" x2="60" y1="57.86" x1="60"/></g></svg></g></g></g><g transform="translate(18.280312247687483,107.73877139799707)" class="architecture-service"><g transform="translate(40, 80)" text-anchor="middle" dominant-baseline="middle" alignment-baseline="middle" dy="1em"><g><rect style="stroke: none" class="background"/><text style="" y="-10.1"><tspan dy="1.1em" y="-0.1em" x="0" class="text-outer-tspan"><tspan font-weight="normal" class="text-inner-tspan" font-style="normal">Storage</tspan></tspan></text></g></g><g><g><svg viewBox="0 0 80 80" height="80" width="80" xmlns="http://www.w3.org/2000/svg"><g><rect style="fill: #087ebf; stroke-width: 0px;" height="80" width="80"/><rect style="fill: none; stroke: #fff; stroke-miterlimit: 10; stroke-width: 2px;" ry="1" rx="1" height="50" width="40" y="15" x="20"/><ellipse style="fill: none; stroke: #fff; stroke-miterlimit: 10; stroke-width: 2px;" ry=".83" rx=".8" cy="19.17" cx="24"/><ellipse style="fill: none; stroke: #fff; stroke-miterlimit: 10; stroke-width: 2px;" ry=".83" rx=".8" cy="19.17" cx="56"/><ellipse style="fill: none; stroke: #fff; stroke-miterlimit: 10; stroke-width: 2px;" ry=".83" rx=".8" cy="60.83" cx="24"/><ellipse style="fill: none; stroke: #fff; stroke-miterlimit: 10; stroke-width: 2px;" ry=".83" rx=".8" cy="60.83" cx="56"/><ellipse style="fill: none; stroke: #fff; stroke-miterlimit: 10; stroke-width: 2px;" ry="14.58" rx="14" cy="33.75" cx="40"/><ellipse style="fill: #fff; stroke: #fff; stroke-miterlimit: 10; stroke-width: 2px;" ry="4.17" rx="4" cy="33.75" cx="40"/><path style="fill: #fff; stroke-width: 0px;" d="m37.51,42.52l-4.83,13.22c-.26.71-1.1,1.02-1.76.64l-4.18-2.42c-.66-.38-.81-1.26-.33-1.84l9.01-10.8c.88-1.05,2.56-.08,2.09,1.2Z"/></g></svg></g></g></g><g transform="translate(220.10746328265222,107.73877139799707)" class="architecture-service"><g transform="translate(40, 80)" text-anchor="middle" dominant-baseline="middle" alignment-baseline="middle" dy="1em"><g><rect style="stroke: none" class="background"/><text style="" y="-10.1"><tspan dy="1.1em" y="-0.1em" x="0" class="text-outer-tspan"><tspan font-weight="normal" class="text-inner-tspan" font-style="normal">Storage</tspan></tspan></text></g></g><g><g><svg viewBox="0 0 80 80" height="80" width="80" xmlns="http://www.w3.org/2000/svg"><g><rect style="fill: #087ebf; stroke-width: 0px;" height="80" width="80"/><rect style="fill: none; stroke: #fff; stroke-miterlimit: 10; stroke-width: 2px;" ry="1" rx="1" height="50" width="40" y="15" x="20"/><ellipse style="fill: none; stroke: #fff; stroke-miterlimit: 10; stroke-width: 2px;" ry=".83" rx=".8" cy="19.17" cx="24"/><ellipse style="fill: none; stroke: #fff; stroke-miterlimit: 10; stroke-width: 2px;" ry=".83" rx=".8" cy="19.17" cx="56"/><ellipse style="fill: none; stroke: #fff; stroke-miterlimit: 10; stroke-width: 2px;" ry=".83" rx=".8" cy="60.83" cx="24"/><ellipse style="fill: none; stroke: #fff; stroke-miterlimit: 10; stroke-width: 2px;" ry=".83" rx=".8" cy="60.83" cx="56"/><ellipse style="fill: none; stroke: #fff; stroke-miterlimit: 10; stroke-width: 2px;" ry="14.58" rx="14" cy="33.75" cx="40"/><ellipse style="fill: #fff; stroke: #fff; stroke-miterlimit: 10; stroke-width: 2px;" ry="4.17" rx="4" cy="33.75" cx="40"/><path style="fill: #fff; stroke-width: 0px;" d="m37.51,42.52l-4.83,13.22c-.26.71-1.1,1.02-1.76.64l-4.18-2.42c-.66-.38-.81-1.26-.33-1.84l9.01-10.8c.88-1.05,2.56-.08,2.09,1.2Z"/></g></svg></g></g></g><g transform="translate(18.280312247687483,-93.18386215978768)" class="architecture-service"><g transform="translate(40, 80)" text-anchor="middle" dominant-baseline="middle" alignment-baseline="middle" dy="1em"><g><rect style="stroke: none" class="background"/><text style="" y="-10.1"><tspan dy="1.1em" y="-0.1em" x="0" class="text-outer-tspan"><tspan font-weight="normal" class="text-inner-tspan" font-style="normal">Server</tspan></tspan></text></g></g><g><g><svg viewBox="0 0 80 80" height="80" width="80" xmlns="http://www.w3.org/2000/svg"><g><rect style="fill: #087ebf; stroke-width: 0px;" height="80" width="80"/><rect style="fill: none; stroke: #fff; stroke-miterlimit: 10; stroke-width: 2px;" ry="2" rx="2" height="45" width="45" y="17.5" x="17.5"/><line style="fill: none; stroke: #fff; stroke-miterlimit: 10; stroke-width: 2px;" y2="32.5" x2="62.5" y1="32.5" x1="17.5"/><line style="fill: none; stroke: #fff; stroke-miterlimit: 10; stroke-width: 2px;" y2="47.5" x2="62.5" y1="47.5" x1="17.5"/><g><path style="fill: #fff; stroke-width: 0px;" d="m56.25,25c0,.27-.45.5-1,.5h-10.5c-.55,0-1-.23-1-.5s.45-.5,1-.5h10.5c.55,0,1,.23,1,.5Z"/><path style="fill: none; stroke: #fff; stroke-miterlimit: 10;" d="m56.25,25c0,.27-.45.5-1,.5h-10.5c-.55,0-1-.23-1-.5s.45-.5,1-.5h10.5c.55,0,1,.23,1,.5Z"/></g><g><path style="fill: #fff; stroke-width: 0px;" d="m56.25,40c0,.27-.45.5-1,.5h-10.5c-.55,0-1-.23-1-.5s.45-.5,1-.5h10.5c.55,0,1,.23,1,.5Z"/><path style="fill: none; stroke: #fff; stroke-miterlimit: 10;" d="m56.25,40c0,.27-.45.5-1,.5h-10.5c-.55,0-1-.23-1-.5s.45-.5,1-.5h10.5c.55,0,1,.23,1,.5Z"/></g><g><path style="fill: #fff; stroke-width: 0px;" d="m56.25,55c0,.27-.45.5-1,.5h-10.5c-.55,0-1-.23-1-.5s.45-.5,1-.5h10.5c.55,0,1,.23,1,.5Z"/><path style="fill: none; stroke: #fff; stroke-miterlimit: 10;" d="m56.25,55c0,.27-.45.5-1,.5h-10.5c-.55,0-1-.23-1-.5s.45-.5,1-.5h10.5c.55,0,1,.23,1,.5Z"/></g><g><circle style="fill: #fff; stroke: #fff; stroke-miterlimit: 10;" r=".75" cy="25" cx="32.5"/><circle style="fill: #fff; stroke: #fff; stroke-miterlimit: 10;" r=".75" cy="25" cx="27.5"/><circle style="fill: #fff; stroke: #fff; stroke-miterlimit: 10;" r=".75" cy="25" cx="22.5"/></g><g><circle style="fill: #fff; stroke: #fff; stroke-miterlimit: 10;" r=".75" cy="40" cx="32.5"/><circle style="fill: #fff; stroke: #fff; stroke-miterlimit: 10;" r=".75" cy="40" cx="27.5"/><circle style="fill: #fff; stroke: #fff; stroke-miterlimit: 10;" r=".75" cy="40" cx="22.5"/></g><g><circle style="fill: #fff; stroke: #fff; stroke-miterlimit: 10;" r=".75" cy="55" cx="32.5"/><circle style="fill: #fff; stroke: #fff; stroke-miterlimit: 10;" r=".75" cy="55" cx="27.5"/><circle style="fill: #fff; stroke: #fff; stroke-miterlimit: 10;" r=".75" cy="55" cx="22.5"/></g></g></svg></g></g></g></g><g class="architecture-groups"><rect class="node-bkg" height="382.6865657611851" width="271" y="-116.00270360139746" x="-368.60746328265236"/><g><g transform="translate(-367.60746328265236, -115.00270360139746)"><g><svg viewBox="0 0 80 80" height="30" width="30" xmlns="http://www.w3.org/2000/svg"><g><rect style="fill: #087ebf; stroke-width: 0px;" height="80" width="80"/><circle style="fill: none; stroke: #fff; stroke-miterlimit: 10; stroke-width: 2px;" r="22.5" cy="40" cx="40"/><line style="fill: none; stroke: #fff; stroke-miterlimit: 10; stroke-width: 2px;" y2="62.5" x2="40" y1="17.5" x1="40"/><line style="fill: none; stroke: #fff; stroke-miterlimit: 10; stroke-width: 2px;" y2="40" x2="62.5" y1="40" x1="17.5"/><path style="fill: none; stroke: #fff; stroke-miterlimit: 10; stroke-width: 2px;" d="m39.99,17.51c-15.28,11.1-15.28,33.88,0,44.98"/><path style="fill: none; stroke: #fff; stroke-miterlimit: 10; stroke-width: 2px;" d="m40.01,17.51c15.28,11.1,15.28,33.88,0,44.98"/><line style="fill: none; stroke: #fff; stroke-miterlimit: 10; stroke-width: 2px;" y2="30.1" x2="60.25" y1="30.1" x1="19.75"/><line style="fill: none; stroke: #fff; stroke-miterlimit: 10; stroke-width: 2px;" y2="49.9" x2="60.25" y1="49.9" x1="19.75"/></g></svg></g></g><g transform="translate(-334.60746328265236, -109.00270360139746)" text-anchor="start" dominant-baseline="start" alignment-baseline="middle" dy="1em"><g><rect style="stroke: none" class="background"/><text style="" y="-10.1"><tspan dy="1.1em" y="-0.1em" x="0" class="text-outer-tspan"><tspan font-weight="normal" class="text-inner-tspan" font-style="normal">Frontend</tspan></tspan></text></g></g></g><rect class="node-bkg" height="382.92263355778476" width="366.82715103496474" y="-135.68386215978768" x="-24.21968775231251"/><g><g transform="translate(-23.21968775231251, -134.68386215978768)"><g><svg viewBox="0 0 80 80" height="30" width="30" xmlns="http://www.w3.org/2000/svg"><g><rect style="fill: #087ebf; stroke-width: 0px;" height="80" width="80"/><path style="fill: none; stroke: #fff; stroke-miterlimit: 10; stroke-width: 2px;" d="m65,47.5c0,2.76-2.24,5-5,5H20c-2.76,0-5-2.24-5-5,0-1.87,1.03-3.51,2.56-4.36-.04-.21-.06-.42-.06-.64,0-2.6,2.48-4.74,5.65-4.97,1.65-4.51,6.34-7.76,11.85-7.76.86,0,1.69.08,2.5.23,2.09-1.57,4.69-2.5,7.5-2.5,6.1,0,11.19,4.38,12.28,10.17,2.14.56,3.72,2.51,3.72,4.83,0,.03,0,.07-.01.1,2.29.46,4.01,2.48,4.01,4.9Z"/></g></svg></g></g><g transform="translate(9.78031224768749, -128.68386215978768)" text-anchor="start" dominant-baseline="start" alignment-baseline="middle" dy="1em"><g><rect style="stroke: none" class="background"/><text style="" y="-10.1"><tspan dy="1.1em" y="-0.1em" x="0" class="text-outer-tspan"><tspan font-weight="normal" class="text-inner-tspan" font-style="normal">API</tspan></tspan></text></g></g></g></g></svg>